<?xml version="1.0" encoding="utf-8"?>
<!DOCTYPE svg PUBLIC "-//W3C//DTD SVG 1.0//EN" "http://www.w3.org/TR/2001/REC-SVG-20010904/DTD/svg10.dtd">
<svg version="1.0" xmlns="http://www.w3.org/2000/svg" width="1024px" height="1024px" viewBox="0 0 1024 1024" preserveAspectRatio="xMidYMid meet"
 data-comment="Orange #ff6836 or Secondary is HTML default orange #FFA500">
 <g fill="#FFA500">
  <path d="M510 870.50 c0 -0.25 -0.90 -0.50 -2 -0.50 -1.10 0 -2 -0.20 -2 -0.50 0 -0.25 -0.45 -0.50 -1 -0.50 -0.55 0 -1 -0.20 -1 -0.50 0 -0.25 -0.45 -0.50 -1 -0.50 -0.55 0 -1 -0.20 -1 -0.50 0 -0.25 -0.45 -0.50 -1 -0.50 -0.55 0 -1 -0.20 -1 -0.50 0 -0.25 -0.40 -0.50 -0.90 -0.50 -0.50 0 -1.20 -0.45 -1.60 -1 -0.40 -0.55 -1.10 -1 -1.60 -1 -0.50 0 -0.90 -0.20 -0.90 -0.50 0 -0.25 -0.40 -0.50 -0.90 -0.50 -0.50 0 -1.20 -0.45 -1.60 -1 -0.40 -0.55 -1.10 -1 -1.60 -1 -0.50 0 -0.90 -0.20 -0.90 -0.50 0 -0.25 -0.45 -0.50 -1 -0.50 -0.55 0 -1 -0.20 -1 -0.50 0 -0.25 -0.40 -0.50 -0.90 -0.50 -0.50 0 -1.20 -0.45 -1.60 -1 -0.40 -0.55 -1.10 -1 -1.60 -1 -0.50 0 -0.90 -0.20 -0.90 -0.50 0 -0.25 -0.40 -0.50 -0.90 -0.50 -0.50 0 -1.20 -0.45 -1.60 -1 -0.40 -0.55 -1.10 -1 -1.60 -1 -0.50 0 -0.90 -0.20 -0.90 -0.50 0 -0.25 -0.40 -0.50 -0.90 -0.50 -0.50 0 -1.20 -0.45 -1.60 -1 -0.40 -0.55 -1.10 -1 -1.60 -1 -0.50 0 -0.90 -0.20 -0.90 -0.50 0 -0.25 -0.45 -0.50 -1 -0.50 -0.55 0 -1 -0.20 -1 -0.50 0 -0.25 -0.45 -0.50 -1 -0.50 -0.55 0 -1 -0.20 -1 -0.50 0 -0.25 -0.40 -0.50 -0.90 -0.50 -0.50 0 -1.20 -0.45 -1.60 -1 -0.40 -0.55 -1.05 -1 -1.50 -1 -0.45 0 -1.10 -0.45 -1.50 -1 -0.40 -0.55 -1.10 -1 -1.60 -1 -0.50 0 -0.90 -0.20 -0.90 -0.50 0 -0.25 -0.45 -0.50 -1 -0.50 -0.55 0 -1 -0.20 -1 -0.50 0 -0.25 -0.40 -0.50 -0.90 -0.50 -0.50 0 -1.20 -0.45 -1.60 -1 -0.40 -0.55 -1.10 -1 -1.60 -1 -0.50 0 -0.90 -0.20 -0.90 -0.50 0 -0.25 -0.45 -0.50 -1 -0.50 -0.55 0 -1 -0.20 -1 -0.50 0 -0.25 -0.40 -0.50 -0.90 -0.50 -0.50 0 -1.20 -0.45 -1.60 -1 -0.40 -0.55 -1.10 -1 -1.60 -1 -0.50 0 -0.90 -0.20 -0.90 -0.50 0 -0.25 -0.40 -0.50 -0.90 -0.50 -0.50 0 -1.20 -0.45 -1.60 -1 -0.40 -0.55 -1.10 -1 -1.60 -1 -0.50 0 -0.90 -0.20 -0.90 -0.50 0 -0.25 -0.45 -0.50 -1 -0.50 -0.55 0 -1 -0.20 -1 -0.50 0 -0.25 -0.40 -0.50 -0.90 -0.50 -0.50 0 -1.20 -0.45 -1.60 -1 -0.40 -0.55 -1.10 -1 -1.60 -1 -0.50 0 -0.90 -0.20 -0.90 -0.50 0 -0.25 -0.45 -0.50 -1 -0.50 -0.55 0 -1 -0.20 -1 -0.50 0 -0.25 -0.40 -0.50 -0.90 -0.50 -0.50 0 -1.20 -0.45 -1.60 -1 -0.40 -0.55 -1.10 -1 -1.60 -1 -0.50 0 -0.90 -0.20 -0.90 -0.50 0 -0.25 -0.40 -0.50 -0.90 -0.50 -0.50 0 -1.20 -0.45 -1.60 -1 -0.40 -0.55 -1.10 -1 -1.60 -1 -0.50 0 -0.90 -0.20 -0.90 -0.50 0 -0.25 -0.45 -0.50 -1 -0.50 -0.55 0 -1 -0.20 -1 -0.50 0 -0.25 -0.40 -0.50 -0.90 -0.50 -0.50 0 -1.20 -0.45 -1.60 -1 -0.40 -0.55 -1.10 -1 -1.60 -1 -0.50 0 -0.90 -0.20 -0.90 -0.50 0 -0.25 -0.40 -0.50 -0.90 -0.50 -0.50 0 -1.20 -0.45 -1.60 -1 -0.40 -0.55 -1.10 -1 -1.60 -1 -0.50 0 -0.90 -0.20 -0.90 -0.50 0 -0.25 -0.40 -0.50 -0.90 -0.50 -0.50 0 -1.20 -0.45 -1.60 -1 -0.40 -0.55 -1.10 -1 -1.60 -1 -0.50 0 -0.90 -0.20 -0.90 -0.50 0 -0.25 -0.45 -0.50 -1 -0.50 -0.55 0 -1 -0.20 -1 -0.50 0 -0.25 -0.40 -0.50 -0.90 -0.50 -0.50 0 -1.20 -0.45 -1.60 -1 -0.40 -0.55 -1.10 -1 -1.60 -1 -0.50 0 -0.90 -0.20 -0.90 -0.50 0 -0.25 -0.45 -0.50 -1 -0.50 -0.55 0 -1 -0.20 -1 -0.50 0 -0.25 -0.40 -0.50 -0.90 -0.50 -0.50 0 -1.20 -0.45 -1.60 -1 -0.40 -0.55 -1.10 -1 -1.60 -1 -0.50 0 -0.90 -0.20 -0.90 -0.50 0 -0.25 -0.40 -0.50 -0.90 -0.50 -0.50 0 -1.20 -0.45 -1.60 -1 -0.40 -0.55 -1.10 -1 -1.60 -1 -0.50 0 -0.90 -0.20 -0.90 -0.50 0 -0.25 -0.45 -0.50 -1 -0.50 -0.55 0 -1 -0.20 -1 -0.50 0 -0.25 -0.40 -0.50 -0.90 -0.50 -0.50 0 -1.20 -0.45 -1.60 -1 -0.40 -0.55 -1.10 -1 -1.60 -1 -0.50 0 -0.90 -0.20 -0.90 -0.50 0 -0.25 -0.40 -0.50 -0.90 -0.50 -0.50 0 -1.20 -0.45 -1.60 -1 -0.40 -0.55 -1.10 -1 -1.60 -1 -0.50 0 -0.90 -0.20 -0.90 -0.50 0 -0.25 -0.45 -0.50 -1 -0.50 -0.55 0 -1 -0.20 -1 -0.50 0 -0.25 -0.40 -0.50 -0.90 -0.50 -0.50 0 -1.20 -0.45 -1.60 -1 -0.40 -0.55 -1.10 -1 -1.60 -1 -0.50 0 -0.90 -0.20 -0.90 -0.50 0 -0.25 -0.40 -0.50 -0.90 -0.50 -0.50 0 -1.20 -0.45 -1.60 -1 -0.40 -0.55 -1.10 -1 -1.60 -1 -0.50 0 -0.90 -0.20 -0.90 -0.50 0 -0.25 -0.45 -0.50 -1 -0.50 -0.55 0 -1 -0.20 -1 -0.50 0 -0.25 -0.40 -0.50 -0.90 -0.50 -0.50 0 -1.20 -0.45 -1.60 -1 -0.40 -0.55 -1.05 -1 -1.50 -1 -0.45 0 -1.10 -0.45 -1.50 -1 -0.40 -0.55 -1.10 -1 -1.60 -1 -0.50 0 -0.90 -0.20 -0.90 -0.50 0 -0.25 -0.45 -0.50 -1 -0.50 -0.55 0 -1 -0.20 -1 -0.50 0 -0.25 -0.45 -0.50 -1 -0.50 -0.55 0 -1 -0.20 -1 -0.50 0 -0.25 -0.40 -0.50 -0.90 -0.50 -0.50 0 -1.20 -0.45 -1.60 -1 -0.40 -0.55 -1.10 -1 -1.60 -1 -0.50 0 -0.90 -0.20 -0.90 -0.50 0 -0.25 -0.40 -0.50 -0.90 -0.50 -0.50 0 -1.20 -0.45 -1.60 -1 -0.40 -0.55 -1.10 -1 -1.60 -1 -0.50 0 -0.90 -0.20 -0.90 -0.50 0 -0.25 -0.45 -0.50 -1 -0.50 -0.55 0 -1 -0.20 -1 -0.50 0 -0.25 -0.40 -0.50 -0.90 -0.50 -0.50 0 -1.20 -0.45 -1.60 -1 -0.40 -0.55 -1.10 -1 -1.60 -1 -0.50 0 -0.90 -0.20 -0.90 -0.50 0 -0.25 -0.45 -0.50 -1 -0.50 -0.55 0 -1 -0.20 -1 -0.50 0 -0.25 -0.40 -0.50 -0.90 -0.50 -0.50 0 -1.20 -0.45 -1.60 -1 -0.40 -0.55 -1.10 -1 -1.60 -1 -0.50 0 -0.90 -0.20 -0.90 -0.50 0 -0.25 -0.40 -0.50 -0.90 -0.50 -0.50 0 -1.20 -0.45 -1.60 -1 -0.40 -0.55 -1.10 -1 -1.60 -1 -0.50 0 -0.90 -0.20 -0.90 -0.50 0 -0.25 -0.45 -0.50 -1 -0.50 -0.55 0 -1 -0.20 -1 -0.50 0 -0.25 -0.40 -0.50 -0.90 -0.50 -0.50 0 -1.20 -0.45 -1.60 -1 -0.40 -0.55 -1.10 -1 -1.60 -1 -0.50 0 -0.90 -0.20 -0.90 -0.50 0 -0.25 -0.45 -0.50 -1 -0.50 -0.55 0 -1 -0.20 -1 -0.50 0 -0.25 -0.40 -0.50 -0.90 -0.50 -0.50 0 -1.20 -0.45 -1.60 -1 -0.40 -0.55 -1.10 -1 -1.60 -1 -0.50 0 -0.90 -0.20 -0.90 -0.50 0 -0.25 -0.40 -0.50 -0.90 -0.50 -0.50 0 -1.20 -0.45 -1.60 -1 -0.40 -0.55 -1.10 -1 -1.60 -1 -0.50 0 -0.90 -0.20 -0.90 -0.50 0 -0.25 -0.40 -0.50 -0.90 -0.50 -0.50 0 -1.20 -0.45 -1.60 -1 -0.40 -0.55 -1.10 -1 -1.60 -1 -0.50 0 -0.90 -0.20 -0.90 -0.50 0 -0.25 -0.45 -0.50 -1 -0.50 -0.55 0 -1 -0.20 -1 -0.50 0 -0.25 -0.40 -0.50 -0.90 -0.50 -0.50 0 -1.20 -0.45 -1.60 -1 -0.40 -0.55 -1.10 -1 -1.60 -1 -0.50 0 -0.90 -0.20 -0.90 -0.50 0 -0.25 -0.40 -0.50 -0.90 -0.50 -0.50 0 -1.20 -0.45 -1.60 -1 -0.40 -0.55 -1.10 -1 -1.60 -1 -0.50 0 -0.90 -0.20 -0.90 -0.50 0 -0.25 -0.40 -0.50 -0.90 -0.50 -0.50 0 -1.20 -0.45 -1.60 -1 -0.40 -0.55 -1.10 -1 -1.60 -1 -0.50 0 -0.90 -0.20 -0.90 -0.50 0 -0.25 -0.45 -0.50 -1 -0.50 -0.55 0 -1 -0.20 -1 -0.50 0 -0.25 -0.40 -0.50 -0.90 -0.50 -0.50 0 -1.20 -0.45 -1.60 -1 -0.40 -0.55 -1.10 -1 -1.60 -1 -0.50 0 -0.90 -0.20 -0.90 -0.50 0 -0.25 -0.45 -0.50 -1 -0.50 -0.55 0 -1 -0.20 -1 -0.50 0 -0.25 -0.40 -0.50 -0.90 -0.50 -0.50 0 -1.20 -0.45 -1.60 -1 -0.40 -0.55 -1.10 -1 -1.60 -1 -0.50 0 -0.90 -0.20 -0.90 -0.50 0 -0.25 -0.45 -0.50 -1 -0.50 -0.55 0 -1 -0.20 -1 -0.50 0 -0.25 -0.40 -0.50 -0.90 -0.50 -0.50 0 -1.20 -0.45 -1.60 -1 -0.40 -0.55 -1.10 -1 -1.60 -1 -0.50 0 -0.90 -0.20 -0.90 -0.50 0 -0.25 -0.40 -0.50 -0.90 -0.50 -0.50 0 -1.20 -0.45 -1.60 -1 -0.40 -0.55 -1.10 -1 -1.60 -1 -0.50 0 -0.90 -0.20 -0.90 -0.50 0 -0.25 -0.40 -0.50 -0.90 -0.50 -0.50 0 -1.20 -0.45 -1.60 -1 -0.40 -0.55 -1.10 -1 -1.60 -1 -0.50 0 -0.90 -0.20 -0.90 -0.50 0 -0.25 -0.40 -0.50 -0.90 -0.50 -0.50 0 -1.20 -0.45 -1.60 -1 -0.40 -0.55 -1.10 -1 -1.60 -1 -0.50 0 -0.90 -0.20 -0.90 -0.50 0 -0.25 -0.45 -0.50 -1 -0.50 -0.55 0 -1 -0.20 -1 -0.50 0 -0.25 -0.40 -0.50 -0.90 -0.50 -0.50 0 -1.20 -0.45 -1.60 -1 -0.40 -0.55 -1.10 -1 -1.60 -1 -0.50 0 -0.90 -0.20 -0.90 -0.50 0 -0.25 -0.45 -0.50 -1 -0.50 -0.55 0 -1 -0.20 -1 -0.50 0 -0.25 -0.40 -0.50 -0.90 -0.50 -0.50 0 -1.20 -0.45 -1.60 -1 -0.40 -0.55 -1.10 -1 -1.60 -1 -0.50 0 -0.90 -0.20 -0.90 -0.50 0 -0.25 -0.40 -0.50 -0.90 -0.50 -0.50 0 -1.20 -0.45 -1.60 -1 -0.40 -0.55 -1.10 -1 -1.60 -1 -0.50 0 -0.90 -0.20 -0.90 -0.50 0 -0.25 -0.40 -0.50 -0.90 -0.50 -0.50 0 -1.20 -0.45 -1.60 -1 -0.40 -0.55 -1.10 -1 -1.60 -1 -0.50 0 -0.90 -0.20 -0.90 -0.50 0 -0.25 -0.45 -0.50 -1 -0.50 -0.55 0 -1 -0.20 -1 -0.50 0 -0.25 -0.40 -0.50 -0.90 -0.50 -0.50 0 -1.20 -0.45 -1.60 -1 -0.40 -0.55 -1.10 -1 -1.60 -1 -0.50 0 -0.90 -0.20 -0.90 -0.50 0 -0.25 -0.40 -0.50 -0.90 -0.50 -0.50 0 -1.20 -0.45 -1.60 -1 -0.40 -0.55 -1.10 -1 -1.60 -1 -0.50 0 -0.90 -0.20 -0.90 -0.50 0 -0.25 -0.40 -0.50 -0.90 -0.50 -0.50 0 -1.20 -0.45 -1.60 -1 -0.40 -0.55 -1 -1 -1.35 -1 -0.85 0 -5.15 -4.30 -5.15 -5.15 0 -0.35 -0.45 -0.95 -1 -1.35 -0.60 -0.40 -1 -1.30 -1 -2.10 0 -0.75 -0.20 -1.40 -0.50 -1.40 -0.25 0 -0.50 -0.65 -0.50 -1.50 0 -0.80 -0.20 -1.50 -0.50 -1.50 -0.35 0 -0.50 -56.35 -0.50 -168 0 -111.65 0.15 -168 0.50 -168 0.30 0 0.50 -0.65 0.50 -1.50 0 -0.80 0.25 -1.50 0.50 -1.50 0.30 0 0.50 -0.45 0.50 -1 0 -0.55 0.25 -1 0.50 -1 0.30 0 0.50 -0.35 0.50 -0.75 0 -1 5.25 -6.25 6.25 -6.25 0.40 0 0.75 -0.20 0.75 -0.50 0 -0.25 0.40 -0.50 0.90 -0.50 0.50 0 1.20 -0.45 1.60 -1 0.40 -0.55 1.10 -1 1.60 -1 0.50 0 0.90 -0.20 0.90 -0.50 0 -0.25 0.45 -0.50 1 -0.50 0.55 0 1 -0.20 1 -0.50 0 -0.25 0.40 -0.50 0.90 -0.50 0.50 0 1.20 -0.45 1.60 -1 0.40 -0.55 1.10 -1 1.60 -1 0.50 0 0.90 -0.20 0.90 -0.50 0 -0.25 0.40 -0.50 0.90 -0.50 0.50 0 1.20 -0.45 1.60 -1 0.40 -0.55 1.10 -1 1.60 -1 0.50 0 0.90 -0.20 0.90 -0.50 0 -0.25 0.40 -0.50 0.90 -0.50 0.50 0 1.20 -0.45 1.60 -1 0.40 -0.55 1.10 -1 1.60 -1 0.50 0 0.90 -0.20 0.90 -0.50 0 -0.25 0.45 -0.50 1 -0.50 0.55 0 1 -0.20 1 -0.50 0 -0.25 0.40 -0.50 0.90 -0.50 0.50 0 1.20 -0.45 1.60 -1 0.40 -0.55 1.05 -1 1.50 -1 0.45 0 1.10 -0.45 1.50 -1 0.40 -0.55 1.10 -1 1.60 -1 0.50 0 0.90 -0.20 0.90 -0.50 0 -0.25 0.45 -0.50 1 -0.50 0.55 0 1 -0.20 1 -0.50 0 -0.25 0.40 -0.50 0.90 -0.50 0.50 0 1.20 -0.45 1.60 -1 0.40 -0.55 1.10 -1 1.60 -1 0.50 0 0.90 -0.20 0.90 -0.50 0 -0.25 0.45 -0.50 1 -0.50 0.55 0 1 -0.20 1 -0.50 0 -0.25 0.40 -0.50 0.90 -0.50 0.50 0 1.20 -0.45 1.60 -1 0.40 -0.55 1.05 -1 1.50 -1 0.45 0 1.10 -0.45 1.50 -1 0.40 -0.55 1.10 -1 1.60 -1 0.50 0 0.90 -0.20 0.90 -0.50 0 -0.25 0.45 -0.50 1 -0.50 0.55 0 1 -0.20 1 -0.50 0 -0.25 0.40 -0.50 0.90 -0.50 0.50 0 1.20 -0.45 1.60 -1 0.40 -0.55 1.10 -1 1.60 -1 0.50 0 0.90 -0.20 0.90 -0.50 0 -0.25 0.40 -0.50 0.90 -0.50 0.50 0 1.20 -0.45 1.60 -1 0.40 -0.55 1.10 -1 1.60 -1 0.50 0 0.90 -0.20 0.90 -0.50 0 -0.25 0.45 -0.50 1 -0.50 0.55 0 1 -0.20 1 -0.50 0 -0.25 0.40 -0.50 0.90 -0.50 0.50 0 1.20 -0.45 1.60 -1 0.40 -0.55 1.10 -1 1.60 -1 0.50 0 0.90 -0.20 0.90 -0.50 0 -0.25 0.40 -0.50 0.90 -0.50 0.50 0 1.20 -0.45 1.60 -1 0.40 -0.55 1.10 -1 1.60 -1 0.50 0 0.90 -0.20 0.90 -0.50 0 -0.25 0.45 -0.50 1 -0.50 0.55 0 1 -0.20 1 -0.50 0 -0.25 0.40 -0.50 0.90 -0.50 0.50 0 1.20 -0.45 1.60 -1 0.40 -0.55 1.10 -1 1.60 -1 0.50 0 0.90 -0.20 0.90 -0.50 0 -0.25 0.40 -0.50 0.90 -0.50 0.50 0 1.20 -0.45 1.60 -1 0.40 -0.55 1.05 -1 1.50 -1 0.45 0 1.10 -0.45 1.50 -1 0.40 -0.55 1.10 -1 1.60 -1 0.50 0 0.90 -0.20 0.90 -0.50 0 -0.25 0.45 -0.50 1 -0.50 0.55 0 1 -0.20 1 -0.50 0 -0.25 0.40 -0.50 0.90 -0.50 0.50 0 1.20 -0.45 1.60 -1 0.40 -0.55 1.10 -1 1.60 -1 0.50 0 0.90 -0.20 0.90 -0.50 0 -0.25 0.45 -0.50 1 -0.50 0.55 0 1 -0.20 1 -0.50 0 -0.25 0.40 -0.50 0.90 -0.50 0.50 0 1.20 -0.45 1.60 -1 0.40 -0.55 1.10 -1 1.60 -1 0.50 0 0.90 -0.20 0.90 -0.50 0 -0.25 0.40 -0.50 0.90 -0.50 0.50 0 1.20 -0.45 1.60 -1 0.40 -0.55 1.10 -1 1.60 -1 0.50 0 0.90 -0.20 0.90 -0.50 0 -0.25 0.40 -0.50 0.90 -0.50 0.50 0 1.20 -0.45 1.60 -1 0.40 -0.55 1.10 -1 1.60 -1 0.50 0 0.90 -0.20 0.90 -0.50 0 -0.25 0.40 -0.50 0.90 -0.50 0.50 0 1.20 -0.45 1.60 -1 0.40 -0.55 1.10 -1 1.60 -1 0.50 0 0.90 -0.20 0.90 -0.50 0 -0.25 0.45 -0.50 1 -0.50 0.55 0 1 -0.20 1 -0.50 0 -0.25 0.40 -0.50 0.90 -0.50 0.50 0 1.20 -0.45 1.60 -1 0.40 -0.55 1.10 -1 1.60 -1 0.50 0 0.90 -0.20 0.90 -0.50 0 -0.25 0.45 -0.50 1 -0.50 0.55 0 1 -0.20 1 -0.50 0 -0.25 0.40 -0.50 0.90 -0.50 0.50 0 1.20 -0.45 1.60 -1 0.40 -0.55 1.10 -1 1.60 -1 0.50 0 0.90 -0.20 0.90 -0.50 0 -0.25 0.40 -0.50 0.90 -0.50 0.50 0 1.20 -0.45 1.60 -1 0.40 -0.55 1.10 -1 1.60 -1 0.50 0 0.90 -0.20 0.90 -0.50 0 -0.25 0.40 -0.50 0.90 -0.50 0.50 0 1.20 -0.45 1.60 -1 0.40 -0.55 1.05 -1 1.50 -1 0.45 0 1.10 -0.45 1.50 -1 0.40 -0.55 1.10 -1 1.60 -1 0.50 0 0.90 -0.20 0.90 -0.50 0 -0.25 0.45 -0.50 1 -0.50 0.55 0 1 -0.20 1 -0.50 0 -0.25 0.40 -0.50 0.90 -0.50 0.50 0 1.20 -0.45 1.60 -1 0.40 -0.55 1.10 -1 1.60 -1 0.50 0 0.90 -0.20 0.90 -0.50 0 -0.25 0.40 -0.50 0.90 -0.50 0.50 0 1.20 -0.45 1.60 -1 0.40 -0.55 1.05 -1 1.50 -1 0.45 0 1.10 -0.45 1.50 -1 0.40 -0.55 1.10 -1 1.60 -1 0.50 0 0.90 -0.20 0.90 -0.50 0 -0.25 0.45 -0.50 1 -0.50 0.55 0 1 -0.20 1 -0.50 0 -0.25 0.40 -0.50 0.90 -0.50 0.50 0 1.20 -0.45 1.60 -1 0.40 -0.55 1.10 -1 1.60 -1 0.50 0 0.90 -0.20 0.90 -0.50 0 -0.25 0.40 -0.50 0.90 -0.50 0.50 0 1.20 -0.45 1.60 -1 0.40 -0.55 1.10 -1 1.60 -1 0.50 0 0.90 -0.20 0.90 -0.50 0 -0.25 0.40 -0.50 0.90 -0.50 0.50 0 1.20 -0.45 1.60 -1 0.40 -0.55 1.10 -1 1.60 -1 0.50 0 0.90 -0.20 0.90 -0.50 0 -0.25 0.45 -0.50 1 -0.50 0.55 0 1 -0.20 1 -0.50 0 -0.25 0.40 -0.50 0.90 -0.50 0.50 0 1.20 -0.45 1.60 -1 0.40 -0.55 1.10 -1 1.60 -1 0.50 0 0.90 -0.20 0.90 -0.50 0 -0.25 0.40 -0.50 0.90 -0.50 0.50 0 1.20 -0.45 1.60 -1 0.40 -0.55 1.10 -1 1.60 -1 0.50 0 0.90 -0.20 0.90 -0.50 0 -0.25 0.45 -0.50 1 -0.50 0.55 0 1 -0.20 1 -0.50 0 -0.25 0.40 -0.50 0.90 -0.50 0.50 0 1.20 -0.45 1.60 -1 0.40 -0.55 1.05 -1 1.50 -1 0.45 0 1.10 -0.45 1.50 -1 0.40 -0.55 1.10 -1 1.60 -1 0.50 0 0.90 -0.20 0.90 -0.50 0 -0.25 0.45 -0.50 1 -0.50 0.55 0 1 -0.20 1 -0.50 0 -0.25 0.40 -0.50 0.90 -0.50 0.50 0 1.20 -0.45 1.60 -1 0.40 -0.55 1.10 -1 1.60 -1 0.50 0 0.90 -0.20 0.90 -0.50 0 -0.25 0.40 -0.50 0.90 -0.50 0.50 0 1.20 -0.45 1.60 -1 0.40 -0.55 1.10 -1 1.60 -1 0.50 0 0.90 -0.20 0.90 -0.50 0 -0.25 0.45 -0.50 1 -0.50 0.55 0 1 -0.20 1 -0.50 0 -0.25 0.40 -0.50 0.90 -0.50 0.50 0 1.20 -0.45 1.60 -1 0.40 -0.55 1.05 -1 1.50 -1 0.45 0 1.10 -0.45 1.50 -1 0.40 -0.55 1.10 -1 1.60 -1 0.50 0 0.90 -0.20 0.90 -0.50 0 -0.25 0.45 -0.50 1 -0.50 0.55 0 1 -0.20 1 -0.50 0 -0.25 0.40 -0.50 0.90 -0.50 0.50 0 1.20 -0.45 1.60 -1 0.40 -0.55 1.10 -1 1.60 -1 0.50 0 0.90 -0.20 0.90 -0.50 0 -0.25 0.45 -0.50 1 -0.50 0.55 0 1 -0.20 1 -0.50 0 -0.25 0.40 -0.50 0.90 -0.50 0.50 0 1.20 -0.45 1.60 -1 0.40 -0.55 1.10 -1 1.60 -1 0.50 0 0.90 -0.20 0.90 -0.50 0 -0.25 0.40 -0.50 0.90 -0.50 0.50 0 1.20 -0.45 1.60 -1 0.40 -0.55 1.10 -1 1.60 -1 0.50 0 0.90 -0.20 0.90 -0.50 0 -0.25 0.40 -0.50 0.90 -0.50 0.50 0 1.20 -0.45 1.60 -1 0.40 -0.55 1.10 -1 1.60 -1 0.50 0 0.90 -0.20 0.90 -0.50 0 -0.25 0.45 -0.50 1 -0.50 0.55 0 1 -0.20 1 -0.50 0 -0.25 0.40 -0.50 0.90 -0.50 0.50 0 1.20 -0.45 1.60 -1 0.40 -0.55 1.10 -1 1.60 -1 0.50 0 0.90 -0.20 0.90 -0.50 0 -0.25 0.45 -0.50 1 -0.50 0.55 0 1 -0.20 1 -0.50 0 -0.25 0.40 -0.50 0.90 -0.50 0.50 0 1.20 -0.45 1.60 -1 0.40 -0.55 1.05 -1 1.50 -1 0.45 0 1.10 -0.45 1.50 -1 0.40 -0.55 1.10 -1 1.60 -1 0.50 0 0.90 -0.20 0.90 -0.50 0 -0.25 0.45 -0.50 1 -0.50 0.55 0 1 -0.20 1 -0.50 0 -0.25 0.40 -0.50 0.90 -0.50 0.50 0 1.20 -0.45 1.60 -1 0.40 -0.55 1.10 -1 1.60 -1 0.50 0 0.90 -0.20 0.90 -0.50 0 -0.25 0.45 -0.50 1 -0.50 0.55 0 1 -0.20 1 -0.50 0 -0.25 0.40 -0.50 0.90 -0.50 0.50 0 1.20 -0.45 1.60 -1 0.40 -0.55 1.05 -1 1.50 -1 0.45 0 1.10 -0.45 1.50 -1 0.40 -0.55 1.10 -1 1.60 -1 0.50 0 0.90 -0.20 0.90 -0.50 0 -0.25 0.45 -0.50 1 -0.50 0.55 0 1 -0.20 1 -0.50 0 -0.25 0.40 -0.50 0.90 -0.50 0.50 0 1.20 -0.45 1.60 -1 0.40 -0.55 1.10 -1 1.60 -1 0.50 0 0.90 -0.20 0.90 -0.50 0 -0.25 0.40 -0.50 0.90 -0.50 0.50 0 1.20 -0.45 1.60 -1 0.40 -0.55 1.10 -1 1.60 -1 0.50 0 0.90 -0.20 0.90 -0.50 0 -0.25 0.40 -0.50 0.90 -0.50 0.50 0 1.20 -0.45 1.60 -1 0.40 -0.55 1.10 -1 1.60 -1 0.50 0 0.90 -0.20 0.90 -0.50 0 -0.25 0.45 -0.50 1 -0.50 0.55 0 1 -0.20 1 -0.50 0 -0.25 0.45 -0.50 1 -0.50 0.55 0 1 -0.20 1 -0.50 0 -0.25 0.45 -0.50 1 -0.50 0.55 0 1 -0.20 1 -0.50 0 -0.30 2.15 -0.50 5.50 -0.50 3.35 0 5.50 0.20 5.50 0.50 0 0.30 0.70 0.50 1.50 0.50 0.85 0 1.50 0.25 1.50 0.50 0 0.30 0.45 0.50 1 0.50 0.55 0 1 0.25 1 0.50 0 0.30 0.45 0.50 1 0.50 0.55 0 1 0.25 1 0.50 0 0.30 0.40 0.50 0.90 0.50 0.50 0 1.20 0.45 1.60 1 0.40 0.55 1.10 1 1.60 1 0.50 0 0.90 0.25 0.90 0.50 0 0.30 0.45 0.50 1 0.50 0.55 0 1 0.25 1 0.50 0 0.30 0.40 0.50 0.90 0.50 0.50 0 1.20 0.45 1.60 1 0.40 0.55 1.10 1 1.60 1 0.50 0 0.90 0.25 0.90 0.50 0 0.30 0.45 0.50 1 0.50 0.55 0 1 0.25 1 0.50 0 0.30 0.40 0.50 0.90 0.50 0.50 0 1.20 0.45 1.60 1 0.40 0.55 1.10 1 1.60 1 0.50 0 0.90 0.25 0.90 0.50 0 0.30 0.45 0.50 1 0.50 0.55 0 1 0.25 1 0.50 0 0.30 0.40 0.50 0.90 0.50 0.50 0 1.20 0.45 1.60 1 0.40 0.55 1.10 1 1.60 1 0.50 0 0.90 0.25 0.90 0.50 0 0.30 0.40 0.50 0.90 0.50 0.50 0 1.20 0.45 1.60 1 0.40 0.55 1.10 1 1.60 1 0.50 0 0.90 0.25 0.90 0.50 0 0.30 0.40 0.50 0.90 0.50 0.50 0 1.20 0.45 1.60 1 0.40 0.55 1.10 1 1.60 1 0.50 0 0.90 0.25 0.90 0.50 0 0.30 0.45 0.50 1 0.50 0.55 0 1 0.25 1 0.50 0 0.30 0.40 0.50 0.90 0.50 0.50 0 1.20 0.45 1.60 1 0.40 0.55 1.10 1 1.60 1 0.50 0 0.90 0.25 0.90 0.50 0 0.30 0.40 0.50 0.90 0.50 0.50 0 1.20 0.45 1.60 1 0.40 0.55 1.10 1 1.60 1 0.50 0 0.90 0.25 0.90 0.50 0 0.30 0.45 0.50 1 0.50 0.55 0 1 0.25 1 0.50 0 0.30 0.40 0.50 0.90 0.50 0.50 0 1.20 0.45 1.60 1 0.40 0.55 1.10 1 1.60 1 0.50 0 0.90 0.25 0.90 0.50 0 0.30 0.45 0.50 1 0.50 0.55 0 1 0.25 1 0.50 0 0.30 0.40 0.50 0.90 0.50 0.50 0 1.20 0.45 1.60 1 0.40 0.55 1.10 1 1.60 1 0.50 0 0.90 0.25 0.90 0.50 0 0.30 0.40 0.50 0.90 0.50 0.50 0 1.20 0.45 1.60 1 0.40 0.55 1.10 1 1.60 1 0.50 0 0.90 0.25 0.90 0.50 0 0.30 0.45 0.50 1 0.50 0.55 0 1 0.25 1 0.50 0 0.30 0.40 0.50 0.90 0.50 0.50 0 1.20 0.45 1.60 1 0.40 0.55 1.10 1 1.60 1 0.50 0 0.90 0.25 0.90 0.50 0 0.30 0.40 0.50 0.90 0.50 0.50 0 1.20 0.45 1.60 1 0.40 0.55 1.10 1 1.60 1 0.50 0 0.90 0.25 0.90 0.50 0 0.30 0.40 0.50 0.90 0.50 0.50 0 1.20 0.45 1.60 1 0.40 0.55 1.10 1 1.60 1 0.50 0 0.90 0.25 0.90 0.50 0 0.30 0.45 0.50 1 0.50 0.55 0 1 0.25 1 0.50 0 0.30 0.40 0.50 0.90 0.50 0.50 0 1.20 0.45 1.60 1 0.40 0.55 1.10 1 1.60 1 0.50 0 0.90 0.25 0.90 0.50 0 0.30 0.40 0.50 0.90 0.50 0.50 0 1.20 0.45 1.60 1 0.40 0.55 1.10 1 1.60 1 0.50 0 0.90 0.25 0.90 0.50 0 0.30 0.45 0.50 1 0.50 0.55 0 1 0.25 1 0.50 0 0.30 0.40 0.50 0.90 0.50 0.50 0 1.20 0.45 1.60 1 0.40 0.55 1.10 1 1.60 1 0.50 0 0.90 0.25 0.90 0.50 0 0.30 0.40 0.50 0.90 0.50 0.50 0 1.20 0.45 1.60 1 0.40 0.55 1.10 1 1.60 1 0.50 0 0.90 0.25 0.90 0.50 0 0.30 0.45 0.50 1 0.50 0.55 0 1 0.25 1 0.50 0 0.30 0.40 0.50 0.90 0.50 0.50 0 1.20 0.45 1.60 1 0.40 0.55 1.05 1 1.50 1 0.45 0 1.10 0.45 1.50 1 0.40 0.55 1.10 1 1.60 1 0.50 0 0.90 0.25 0.90 0.50 0 0.30 0.45 0.50 1 0.50 0.55 0 1 0.25 1 0.50 0 0.30 0.45 0.50 1 0.50 0.55 0 1 0.25 1 0.50 0 0.30 0.40 0.50 0.90 0.50 0.50 0 1.20 0.45 1.60 1 0.40 0.55 1.10 1 1.60 1 0.50 0 0.90 0.25 0.90 0.50 0 0.30 0.40 0.50 0.90 0.50 0.50 0 1.20 0.45 1.60 1 0.40 0.55 1.10 1 1.60 1 0.50 0 0.90 0.25 0.90 0.50 0 0.30 0.45 0.50 1 0.50 0.55 0 1 0.25 1 0.50 0 0.30 0.45 0.50 1 0.50 0.55 0 1 0.25 1 0.50 0 0.30 0.40 0.50 0.90 0.50 0.50 0 1.20 0.45 1.60 1 0.40 0.55 1.10 1 1.60 1 0.50 0 0.90 0.25 0.90 0.50 0 0.30 0.40 0.50 0.90 0.50 0.50 0 1.20 0.45 1.60 1 0.40 0.55 1.10 1 1.60 1 0.50 0 0.90 0.25 0.90 0.50 0 0.30 0.40 0.50 0.90 0.50 0.50 0 1.20 0.45 1.60 1 0.40 0.55 1.10 1 1.60 1 0.50 0 0.90 0.25 0.90 0.50 0 0.30 0.45 0.50 1 0.50 0.55 0 1 0.25 1 0.50 0 0.30 0.40 0.50 0.90 0.50 0.50 0 1.20 0.45 1.60 1 0.40 0.55 1.10 1 1.60 1 0.50 0 0.90 0.25 0.90 0.50 0 0.30 0.40 0.50 0.90 0.50 0.50 0 1.20 0.45 1.60 1 0.40 0.55 1.10 1 1.60 1 0.50 0 0.90 0.25 0.90 0.50 0 0.30 0.45 0.50 1 0.50 0.55 0 1 0.25 1 0.50 0 0.30 0.40 0.50 0.90 0.50 0.50 0 1.20 0.45 1.60 1 0.40 0.55 1.10 1 1.60 1 0.50 0 0.90 0.25 0.90 0.50 0 0.30 0.45 0.50 1 0.50 0.55 0 1 0.25 1 0.50 0 0.30 0.40 0.50 0.90 0.50 0.50 0 1.20 0.45 1.60 1 0.40 0.55 1.05 1 1.50 1 0.45 0 1.10 0.45 1.50 1 0.40 0.55 1.10 1 1.60 1 0.50 0 0.90 0.25 0.90 0.50 0 0.30 0.45 0.50 1 0.50 0.55 0 1 0.25 1 0.50 0 0.30 0.40 0.50 0.90 0.50 0.50 0 1.20 0.45 1.60 1 0.40 0.55 1.10 1 1.60 1 0.50 0 0.90 0.25 0.90 0.50 0 0.30 0.45 0.50 1 0.50 0.55 0 1 0.25 1 0.50 0 0.30 0.40 0.50 0.90 0.50 0.50 0 1.20 0.45 1.60 1 0.40 0.55 1.10 1 1.60 1 0.50 0 0.90 0.25 0.90 0.50 0 0.30 0.40 0.50 0.90 0.50 0.50 0 1.20 0.45 1.60 1 0.40 0.55 1.10 1 1.60 1 0.50 0 0.90 0.25 0.90 0.50 0 0.30 0.40 0.50 0.90 0.50 0.50 0 1.20 0.45 1.60 1 0.40 0.55 1.10 1 1.60 1 0.50 0 0.90 0.25 0.90 0.50 0 0.30 0.45 0.50 1 0.50 0.55 0 1 0.25 1 0.50 0 0.30 0.40 0.50 0.90 0.50 0.50 0 1.20 0.45 1.60 1 0.40 0.55 1.10 1 1.60 1 0.50 0 0.90 0.25 0.90 0.50 0 0.30 0.40 0.50 0.90 0.50 0.50 0 1.20 0.45 1.60 1 0.40 0.55 1.10 1 1.60 1 0.50 0 0.90 0.25 0.90 0.50 0 0.30 0.40 0.50 0.90 0.50 0.50 0 1.20 0.45 1.60 1 0.40 0.55 1.10 1 1.60 1 0.50 0 0.90 0.25 0.90 0.50 0 0.30 0.45 0.50 1 0.50 0.55 0 1 0.25 1 0.50 0 0.30 0.45 0.50 1 0.50 0.55 0 1 0.25 1 0.50 0 0.30 0.40 0.50 0.90 0.50 0.50 0 1.20 0.45 1.60 1 0.40 0.55 1.10 1 1.60 1 0.50 0 0.90 0.25 0.90 0.50 0 0.30 0.40 0.50 0.90 0.50 0.50 0 1.20 0.45 1.60 1 0.40 0.55 1.10 1 1.60 1 0.50 0 0.90 0.25 0.90 0.50 0 0.30 0.40 0.50 0.90 0.50 0.50 0 1.20 0.45 1.60 1 0.40 0.55 1.10 1 1.60 1 0.50 0 0.90 0.25 0.90 0.50 0 0.30 0.40 0.50 0.90 0.50 0.50 0 1.20 0.45 1.60 1 0.40 0.55 1.10 1 1.60 1 0.50 0 0.90 0.25 0.90 0.50 0 0.30 0.45 0.50 1 0.50 0.55 0 1 0.25 1 0.50 0 0.30 0.40 0.50 0.90 0.50 0.50 0 1.20 0.45 1.60 1 0.40 0.55 1.10 1 1.60 1 0.50 0 0.90 0.25 0.90 0.50 0 0.30 0.45 0.50 1 0.50 0.55 0 1 0.25 1 0.50 0 0.30 0.40 0.50 0.90 0.50 0.50 0 1.20 0.45 1.60 1 0.40 0.55 1.10 1 1.60 1 0.50 0 0.90 0.25 0.90 0.50 0 0.30 0.40 0.50 0.90 0.50 0.50 0 1.20 0.45 1.60 1 0.40 0.55 1.05 1 1.50 1 0.45 0 1.10 0.45 1.50 1 0.40 0.55 1.10 1 1.60 1 0.50 0 0.90 0.25 0.90 0.50 0 0.30 0.45 0.50 1 0.50 0.55 0 1 0.25 1 0.50 0 0.30 0.45 0.50 1 0.50 0.55 0 1 0.25 1 0.50 0 0.30 0.40 0.50 0.90 0.50 0.50 0 1.20 0.45 1.60 1 0.40 0.55 1.10 1 1.60 1 0.50 0 0.90 0.25 0.90 0.50 0 0.30 0.40 0.50 0.90 0.50 0.50 0 1.20 0.45 1.60 1 0.40 0.55 1.10 1 1.60 1 0.50 0 0.90 0.25 0.90 0.50 0 0.30 0.45 0.50 1 0.50 0.55 0 1 0.25 1 0.50 0 0.30 0.40 0.50 0.90 0.50 0.50 0 1.20 0.45 1.60 1 0.40 0.55 1.10 1 1.60 1 0.50 0 0.90 0.25 0.90 0.50 0 0.30 0.40 0.50 0.90 0.50 0.50 0 1.20 0.45 1.60 1 0.40 0.55 1.10 1 1.60 1 0.50 0 0.90 0.25 0.90 0.50 0 0.30 0.40 0.50 0.90 0.50 0.50 0 1.20 0.45 1.60 1 0.40 0.55 1 1 1.35 1 0.95 0 7.15 6.30 7.15 7.25 0 0.40 0.25 0.75 0.50 0.75 0.30 0 0.50 0.45 0.50 1 0 0.55 0.25 1 0.50 1 0.30 0 0.50 0.70 0.50 1.50 0 0.85 0.25 1.50 0.50 1.50 0.35 0 0.50 56.35 0.50 168 0 111.65 -0.15 168 -0.50 168 -0.25 0 -0.50 0.70 -0.50 1.50 0 0.85 -0.20 1.50 -0.50 1.50 -0.25 0 -0.50 0.45 -0.50 1 0 0.55 -0.20 1 -0.50 1 -0.25 0 -0.50 0.35 -0.50 0.75 0 0.45 -1.45 2.25 -3.25 4 -1.75 1.80 -3.55 3.25 -4 3.25 -0.40 0 -0.75 0.25 -0.75 0.50 0 0.30 -0.40 0.50 -0.90 0.50 -0.50 0 -1.20 0.45 -1.60 1 -0.40 0.55 -1.10 1 -1.60 1 -0.50 0 -0.90 0.25 -0.90 0.50 0 0.30 -0.40 0.50 -0.90 0.50 -0.50 0 -1.20 0.45 -1.60 1 -0.40 0.55 -1.10 1 -1.60 1 -0.50 0 -0.90 0.25 -0.90 0.50 0 0.30 -0.40 0.50 -0.90 0.50 -0.50 0 -1.20 0.45 -1.60 1 -0.40 0.55 -1.10 1 -1.60 1 -0.50 0 -0.90 0.25 -0.90 0.50 0 0.30 -0.45 0.50 -1 0.50 -0.55 0 -1 0.25 -1 0.50 0 0.30 -0.40 0.50 -0.90 0.50 -0.50 0 -1.20 0.45 -1.60 1 -0.40 0.55 -1.05 1 -1.50 1 -0.45 0 -1.10 0.45 -1.50 1 -0.40 0.55 -1.10 1 -1.60 1 -0.50 0 -0.90 0.25 -0.90 0.50 0 0.30 -0.45 0.50 -1 0.50 -0.55 0 -1 0.25 -1 0.50 0 0.30 -0.40 0.50 -0.90 0.50 -0.50 0 -1.20 0.45 -1.60 1 -0.40 0.55 -1.10 1 -1.60 1 -0.50 0 -0.90 0.25 -0.90 0.50 0 0.30 -0.45 0.50 -1 0.50 -0.55 0 -1 0.25 -1 0.50 0 0.30 -0.40 0.50 -0.90 0.50 -0.50 0 -1.20 0.45 -1.60 1 -0.40 0.55 -1.05 1 -1.50 1 -0.45 0 -1.10 0.45 -1.50 1 -0.40 0.55 -1.10 1 -1.60 1 -0.50 0 -0.90 0.25 -0.90 0.50 0 0.30 -0.45 0.50 -1 0.50 -0.55 0 -1 0.25 -1 0.50 0 0.30 -0.40 0.50 -0.90 0.50 -0.50 0 -1.20 0.45 -1.60 1 -0.40 0.55 -1.10 1 -1.60 1 -0.50 0 -0.90 0.25 -0.90 0.50 0 0.30 -0.45 0.50 -1 0.50 -0.55 0 -1 0.25 -1 0.50 0 0.30 -0.40 0.50 -0.90 0.50 -0.50 0 -1.20 0.45 -1.60 1 -0.40 0.55 -1.10 1 -1.60 1 -0.50 0 -0.90 0.25 -0.90 0.50 0 0.30 -0.40 0.50 -0.90 0.50 -0.50 0 -1.20 0.45 -1.60 1 -0.40 0.55 -1.10 1 -1.60 1 -0.50 0 -0.90 0.25 -0.90 0.50 0 0.30 -0.40 0.50 -0.90 0.50 -0.50 0 -1.20 0.45 -1.60 1 -0.40 0.55 -1.10 1 -1.60 1 -0.50 0 -0.90 0.25 -0.90 0.50 0 0.30 -0.45 0.50 -1 0.50 -0.55 0 -1 0.25 -1 0.50 0 0.30 -0.40 0.50 -0.90 0.50 -0.50 0 -1.20 0.45 -1.60 1 -0.40 0.55 -1.10 1 -1.60 1 -0.50 0 -0.90 0.25 -0.90 0.50 0 0.30 -0.45 0.50 -1 0.50 -0.55 0 -1 0.25 -1 0.50 0 0.30 -0.40 0.50 -0.90 0.50 -0.50 0 -1.20 0.45 -1.60 1 -0.40 0.55 -1.05 1 -1.50 1 -0.45 0 -1.10 0.45 -1.50 1 -0.40 0.55 -1.10 1 -1.60 1 -0.50 0 -0.90 0.25 -0.90 0.50 0 0.30 -0.40 0.50 -0.90 0.50 -0.50 0 -1.20 0.45 -1.60 1 -0.40 0.55 -1.10 1 -1.60 1 -0.50 0 -0.90 0.25 -0.90 0.50 0 0.30 -0.40 0.50 -0.90 0.50 -0.50 0 -1.20 0.45 -1.60 1 -0.40 0.55 -1.10 1 -1.60 1 -0.50 0 -0.90 0.25 -0.90 0.50 0 0.30 -0.40 0.50 -0.90 0.50 -0.50 0 -1.20 0.45 -1.60 1 -0.40 0.55 -1.10 1 -1.60 1 -0.50 0 -0.90 0.25 -0.90 0.50 0 0.30 -0.40 0.50 -0.90 0.50 -0.50 0 -1.20 0.45 -1.60 1 -0.40 0.55 -1.10 1 -1.60 1 -0.50 0 -0.90 0.25 -0.90 0.50 0 0.30 -0.40 0.50 -0.90 0.50 -0.50 0 -1.20 0.45 -1.60 1 -0.40 0.55 -1.10 1 -1.60 1 -0.50 0 -0.90 0.25 -0.90 0.50 0 0.30 -0.45 0.50 -1 0.50 -0.55 0 -1 0.25 -1 0.50 0 0.30 -0.40 0.50 -0.90 0.50 -0.50 0 -1.20 0.45 -1.60 1 -0.40 0.55 -1.10 1 -1.60 1 -0.50 0 -0.90 0.25 -0.90 0.50 0 0.30 -0.40 0.50 -0.90 0.50 -0.50 0 -1.20 0.45 -1.60 1 -0.40 0.55 -1.10 1 -1.60 1 -0.50 0 -0.90 0.25 -0.90 0.50 0 0.30 -0.40 0.50 -0.90 0.50 -0.50 0 -1.20 0.45 -1.60 1 -0.40 0.55 -1.10 1 -1.60 1 -0.50 0 -0.90 0.25 -0.90 0.50 0 0.30 -0.40 0.50 -0.90 0.50 -0.50 0 -1.20 0.45 -1.60 1 -0.40 0.55 -1.10 1 -1.60 1 -0.50 0 -0.90 0.25 -0.90 0.50 0 0.30 -0.45 0.50 -1 0.50 -0.55 0 -1 0.25 -1 0.50 0 0.30 -0.40 0.50 -0.90 0.50 -0.50 0 -1.20 0.45 -1.60 1 -0.40 0.55 -1.10 1 -1.60 1 -0.50 0 -0.90 0.25 -0.90 0.50 0 0.30 -0.45 0.50 -1 0.50 -0.55 0 -1 0.25 -1 0.50 0 0.30 -0.40 0.50 -0.90 0.50 -0.50 0 -1.20 0.45 -1.60 1 -0.40 0.55 -1.10 1 -1.60 1 -0.50 0 -0.90 0.25 -0.90 0.50 0 0.30 -0.40 0.50 -0.90 0.50 -0.50 0 -1.20 0.45 -1.60 1 -0.40 0.55 -1.10 1 -1.60 1 -0.50 0 -0.90 0.25 -0.90 0.50 0 0.30 -0.40 0.50 -0.90 0.50 -0.50 0 -1.20 0.45 -1.60 1 -0.40 0.55 -1.10 1 -1.60 1 -0.50 0 -0.90 0.25 -0.90 0.50 0 0.30 -0.45 0.50 -1 0.50 -0.55 0 -1 0.25 -1 0.50 0 0.30 -0.40 0.50 -0.90 0.50 -0.50 0 -1.20 0.45 -1.60 1 -0.40 0.55 -1.10 1 -1.60 1 -0.50 0 -0.90 0.25 -0.90 0.50 0 0.30 -0.40 0.50 -0.90 0.50 -0.50 0 -1.20 0.45 -1.60 1 -0.40 0.55 -1.10 1 -1.60 1 -0.50 0 -0.90 0.25 -0.90 0.50 0 0.30 -0.45 0.50 -1 0.50 -0.55 0 -1 0.25 -1 0.50 0 0.30 -0.40 0.50 -0.90 0.50 -0.50 0 -1.20 0.45 -1.60 1 -0.40 0.55 -1.10 1 -1.60 1 -0.50 0 -0.90 0.25 -0.90 0.50 0 0.30 -0.40 0.50 -0.90 0.50 -0.50 0 -1.20 0.45 -1.60 1 -0.40 0.55 -1.10 1 -1.60 1 -0.50 0 -0.90 0.25 -0.90 0.50 0 0.30 -0.40 0.50 -0.90 0.50 -0.50 0 -1.20 0.45 -1.60 1 -0.40 0.55 -1.10 1 -1.60 1 -0.50 0 -0.90 0.25 -0.90 0.50 0 0.30 -0.40 0.50 -0.90 0.50 -0.50 0 -1.20 0.45 -1.60 1 -0.40 0.55 -1.10 1 -1.60 1 -0.50 0 -0.90 0.25 -0.90 0.50 0 0.30 -0.40 0.50 -0.90 0.50 -0.50 0 -1.20 0.45 -1.60 1 -0.40 0.55 -1.10 1 -1.60 1 -0.50 0 -0.90 0.25 -0.90 0.50 0 0.30 -0.45 0.50 -1 0.50 -0.55 0 -1 0.25 -1 0.50 0 0.30 -0.40 0.50 -0.90 0.50 -0.50 0 -1.20 0.45 -1.60 1 -0.40 0.55 -1.10 1 -1.60 1 -0.50 0 -0.90 0.25 -0.90 0.50 0 0.30 -0.40 0.50 -0.90 0.50 -0.50 0 -1.20 0.45 -1.60 1 -0.40 0.55 -1.10 1 -1.60 1 -0.50 0 -0.90 0.25 -0.90 0.50 0 0.30 -0.45 0.50 -1 0.50 -0.55 0 -1 0.25 -1 0.50 0 0.30 -0.40 0.50 -0.90 0.50 -0.50 0 -1.20 0.45 -1.60 1 -0.40 0.55 -1.10 1 -1.60 1 -0.50 0 -0.90 0.25 -0.90 0.50 0 0.30 -0.40 0.50 -0.90 0.50 -0.50 0 -1.20 0.45 -1.60 1 -0.40 0.55 -1.10 1 -1.60 1 -0.50 0 -0.90 0.25 -0.90 0.50 0 0.30 -0.40 0.50 -0.90 0.50 -0.50 0 -1.20 0.45 -1.60 1 -0.40 0.55 -1.10 1 -1.60 1 -0.50 0 -0.90 0.25 -0.90 0.50 0 0.30 -0.40 0.50 -0.90 0.50 -0.50 0 -1.20 0.45 -1.60 1 -0.40 0.55 -1.10 1 -1.60 1 -0.50 0 -0.90 0.25 -0.90 0.50 0 0.30 -0.45 0.50 -1 0.50 -0.55 0 -1 0.25 -1 0.50 0 0.30 -0.40 0.50 -0.90 0.50 -0.50 0 -1.20 0.45 -1.60 1 -0.40 0.55 -1.05 1 -1.50 1 -0.45 0 -1.10 0.45 -1.50 1 -0.40 0.55 -1.10 1 -1.60 1 -0.50 0 -0.90 0.25 -0.90 0.50 0 0.30 -0.40 0.50 -0.90 0.50 -0.50 0 -1.20 0.45 -1.60 1 -0.40 0.55 -1.10 1 -1.60 1 -0.50 0 -0.90 0.25 -0.90 0.50 0 0.30 -0.45 0.50 -1 0.50 -0.55 0 -1 0.25 -1 0.50 0 0.30 -0.40 0.50 -0.90 0.50 -0.50 0 -1.20 0.45 -1.60 1 -0.40 0.55 -1.10 1 -1.60 1 -0.50 0 -0.90 0.25 -0.90 0.50 0 0.30 -0.40 0.50 -0.90 0.50 -0.50 0 -1.20 0.45 -1.60 1 -0.40 0.55 -1.10 1 -1.60 1 -0.50 0 -0.90 0.25 -0.90 0.50 0 0.30 -0.40 0.50 -0.90 0.50 -0.50 0 -1.20 0.45 -1.60 1 -0.40 0.55 -1.10 1 -1.60 1 -0.50 0 -0.90 0.25 -0.90 0.50 0 0.30 -0.40 0.50 -0.90 0.50 -0.50 0 -1.20 0.45 -1.60 1 -0.40 0.55 -1.10 1 -1.60 1 -0.50 0 -0.90 0.25 -0.90 0.50 0 0.30 -0.45 0.50 -1 0.50 -0.55 0 -1 0.25 -1 0.50 0 0.30 -0.40 0.50 -0.90 0.50 -0.50 0 -1.20 0.45 -1.60 1 -0.40 0.55 -1.10 1 -1.60 1 -0.50 0 -0.90 0.25 -0.90 0.50 0 0.30 -0.40 0.50 -0.90 0.50 -0.50 0 -1.20 0.45 -1.60 1 -0.40 0.55 -1.10 1 -1.60 1 -0.50 0 -0.90 0.25 -0.90 0.50 0 0.30 -0.40 0.50 -0.90 0.50 -0.50 0 -1.20 0.45 -1.60 1 -0.40 0.55 -1.10 1 -1.60 1 -0.50 0 -0.90 0.25 -0.90 0.50 0 0.30 -0.45 0.50 -1 0.50 -0.55 0 -1 0.25 -1 0.50 0 0.30 -0.40 0.50 -0.90 0.50 -0.50 0 -1.20 0.45 -1.60 1 -0.40 0.55 -1.05 1 -1.50 1 -0.45 0 -1.10 0.45 -1.50 1 -0.40 0.55 -1.10 1 -1.60 1 -0.50 0 -0.90 0.25 -0.90 0.50 0 0.30 -0.45 0.50 -1 0.50 -0.55 0 -1 0.25 -1 0.50 0 0.30 -0.40 0.50 -0.90 0.50 -0.50 0 -1.20 0.45 -1.60 1 -0.40 0.60 -1.30 1 -2.10 1 -0.75 0 -1.40 0.25 -1.40 0.50 0 0.30 -0.90 0.50 -2 0.50 -1.10 0 -2 0.25 -2 0.50 0 0.30 -1.35 0.50 -3 0.50 -1.65 0 -3 -0.20 -3 -0.50z m5.50 -26.50 c0.40 -0.55 1.10 -1 1.60 -1 0.50 0 0.90 -0.20 0.90 -0.50 0 -0.25 0.40 -0.50 0.90 -0.50 0.50 0 1.20 -0.45 1.60 -1 0.40 -0.55 1.10 -1 1.60 -1 0.50 0 0.90 -0.20 0.90 -0.50 0 -0.25 0.40 -0.50 0.90 -0.50 0.50 0 1.20 -0.45 1.60 -1 0.40 -0.55 1.10 -1 1.60 -1 0.50 0 0.90 -0.20 0.90 -0.50 0 -0.25 0.45 -0.50 1 -0.50 0.55 0 1 -0.20 1 -0.50 0 -0.25 0.40 -0.50 0.90 -0.50 0.50 0 1.20 -0.45 1.60 -1 0.40 -0.55 1.10 -1 1.60 -1 0.50 0 0.90 -0.20 0.90 -0.50 0 -0.25 0.40 -0.50 0.90 -0.50 0.50 0 1.20 -0.45 1.60 -1 0.40 -0.55 1.10 -1 1.60 -1 0.50 0 0.90 -0.20 0.90 -0.50 0 -0.25 0.40 -0.50 0.90 -0.50 0.50 0 1.20 -0.45 1.60 -1 0.40 -0.55 1.10 -1 1.60 -1 0.50 0 0.90 -0.20 0.90 -0.50 0 -0.25 0.40 -0.50 0.90 -0.50 0.50 0 1.20 -0.45 1.60 -1 0.40 -0.55 1.10 -1 1.60 -1 0.50 0 0.90 -0.20 0.90 -0.50 0 -0.25 0.45 -0.50 1 -0.50 0.55 0 1 -0.20 1 -0.50 0 -0.25 0.40 -0.50 0.90 -0.50 0.50 0 1.20 -0.45 1.60 -1 0.40 -0.55 1.10 -1 1.60 -1 0.50 0 0.90 -0.20 0.90 -0.50 0 -0.25 0.40 -0.50 0.90 -0.50 0.50 0 1.20 -0.45 1.60 -1 0.40 -0.55 1.10 -1 1.60 -1 0.50 0 0.90 -0.20 0.90 -0.50 0 -0.25 0.40 -0.50 0.90 -0.50 0.50 0 1.20 -0.45 1.60 -1 0.40 -0.55 1.10 -1 1.60 -1 0.50 0 0.90 -0.20 0.90 -0.50 0 -0.25 0.45 -0.50 1 -0.50 0.55 0 1 -0.20 1 -0.50 0 -0.25 0.40 -0.50 0.90 -0.50 0.50 0 1.20 -0.45 1.60 -1 0.40 -0.55 1.10 -1 1.60 -1 0.50 0 0.90 -0.20 0.90 -0.50 0 -0.25 0.40 -0.50 0.90 -0.50 0.50 0 1.20 -0.45 1.60 -1 0.40 -0.55 1.10 -1 1.60 -1 0.50 0 0.90 -0.20 0.90 -0.50 0 -0.25 0.40 -0.50 0.90 -0.50 0.50 0 1.20 -0.45 1.60 -1 0.40 -0.55 1.10 -1 1.60 -1 0.50 0 0.90 -0.20 0.90 -0.50 0 -0.25 0.40 -0.50 0.90 -0.50 0.50 0 1.20 -0.45 1.60 -1 0.40 -0.55 1.10 -1 1.60 -1 0.50 0 0.90 -0.20 0.90 -0.50 0 -0.25 0.40 -0.50 0.90 -0.50 0.50 0 1.20 -0.45 1.60 -1 0.40 -0.55 1.10 -1 1.60 -1 0.50 0 0.90 -0.20 0.90 -0.50 0 -0.25 0.40 -0.50 0.90 -0.50 0.50 0 1.20 -0.45 1.60 -1 0.40 -0.55 1.10 -1 1.60 -1 0.50 0 0.90 -0.20 0.90 -0.50 0 -0.25 0.40 -0.50 0.90 -0.50 0.50 0 1.20 -0.45 1.60 -1 0.40 -0.55 1.10 -1 1.60 -1 0.50 0 0.90 -0.20 0.90 -0.50 0 -0.25 0.45 -0.50 1 -0.50 0.55 0 1 -0.20 1 -0.50 0 -0.25 0.40 -0.50 0.90 -0.50 0.50 0 1.20 -0.45 1.60 -1 0.40 -0.55 1.10 -1 1.60 -1 0.50 0 0.90 -0.20 0.90 -0.50 0 -0.25 0.40 -0.50 0.90 -0.50 0.50 0 1.20 -0.45 1.60 -1 0.40 -0.55 1.10 -1 1.60 -1 0.50 0 0.90 -0.20 0.90 -0.50 0 -0.25 0.40 -0.50 0.90 -0.50 0.50 0 1.20 -0.45 1.60 -1 0.40 -0.55 1.10 -1 1.60 -1 0.50 0 0.90 -0.20 0.90 -0.50 0 -0.25 0.45 -0.50 1 -0.50 0.55 0 1 -0.20 1 -0.50 0 -0.25 0.40 -0.50 0.90 -0.50 0.50 0 1.20 -0.45 1.60 -1 0.40 -0.55 1.10 -1 1.60 -1 0.50 0 0.90 -0.20 0.90 -0.50 0 -0.25 0.40 -0.50 0.90 -0.50 0.50 0 1.20 -0.45 1.60 -1 0.40 -0.55 1.10 -1 1.60 -1 0.50 0 0.90 -0.20 0.90 -0.50 0 -0.25 0.45 -0.50 1 -0.50 0.55 0 1 -0.20 1 -0.50 0 -0.25 0.40 -0.50 0.90 -0.50 0.50 0 1.20 -0.45 1.60 -1 0.40 -0.55 1.10 -1 1.60 -1 0.50 0 0.90 -0.20 0.90 -0.50 0 -0.25 0.40 -0.50 0.90 -0.50 0.50 0 1.20 -0.45 1.60 -1 0.40 -0.55 1.10 -1 1.60 -1 0.50 0 0.90 -0.20 0.90 -0.50 0 -0.25 0.40 -0.50 0.90 -0.50 0.50 0 1.20 -0.45 1.60 -1 0.40 -0.55 1.10 -1 1.60 -1 0.50 0 0.90 -0.20 0.90 -0.50 0 -0.25 0.40 -0.50 0.90 -0.50 0.50 0 1.20 -0.45 1.60 -1 0.40 -0.55 1.10 -1 1.60 -1 0.50 0 0.90 -0.20 0.90 -0.50 0 -0.25 0.40 -0.50 0.90 -0.50 0.50 0 1.20 -0.45 1.60 -1 0.40 -0.55 1.10 -1 1.60 -1 0.50 0 0.90 -0.20 0.90 -0.50 0 -0.25 0.40 -0.50 0.90 -0.50 0.50 0 1.20 -0.45 1.60 -1 0.40 -0.55 1.10 -1 1.60 -1 0.50 0 0.90 -0.20 0.90 -0.50 0 -0.25 0.45 -0.50 1 -0.50 0.55 0 1 -0.20 1 -0.50 0 -0.25 0.40 -0.50 0.90 -0.50 0.50 0 1.20 -0.45 1.60 -1 0.40 -0.55 1.10 -1 1.60 -1 0.50 0 0.90 -0.20 0.90 -0.50 0 -0.25 0.45 -0.50 1 -0.50 0.55 0 1 -0.20 1 -0.50 0 -0.25 0.40 -0.50 0.90 -0.50 0.50 0 1.20 -0.45 1.60 -1 0.40 -0.55 1.10 -1 1.60 -1 0.50 0 0.90 -0.20 0.90 -0.50 0 -0.25 0.40 -0.50 0.90 -0.50 0.50 0 1.20 -0.45 1.60 -1 0.40 -0.55 1.10 -1 1.60 -1 0.50 0 0.90 -0.20 0.90 -0.50 0 -0.25 0.40 -0.50 0.90 -0.50 0.50 0 1.20 -0.45 1.60 -1 0.40 -0.55 1.10 -1 1.60 -1 0.50 0 0.90 -0.20 0.90 -0.50 0 -0.25 0.40 -0.50 0.90 -0.50 0.50 0 1.20 -0.45 1.60 -1 0.40 -0.55 1.10 -1 1.60 -1 0.50 0 0.90 -0.20 0.90 -0.50 0 -0.25 0.40 -0.50 0.90 -0.50 0.50 0 1.20 -0.45 1.60 -1 0.40 -0.55 1.10 -1 1.60 -1 0.50 0 0.90 -0.20 0.90 -0.50 0 -0.25 0.45 -0.50 1 -0.50 0.55 0 1 -0.20 1 -0.50 0 -0.25 0.40 -0.50 0.90 -0.50 0.50 0 1.20 -0.45 1.60 -1 0.40 -0.55 1.10 -1 1.60 -1 0.50 0 0.90 -0.20 0.90 -0.50 0 -0.25 0.45 -0.50 1 -0.50 0.55 0 1 -0.20 1 -0.50 0 -0.25 0.40 -0.50 0.90 -0.50 0.50 0 1.20 -0.45 1.60 -1 0.40 -0.55 1.10 -1 1.60 -1 0.50 0 0.90 -0.20 0.90 -0.50 0 -0.25 0.40 -0.50 0.90 -0.50 0.50 0 1.20 -0.45 1.60 -1 0.40 -0.55 1.10 -1 1.60 -1 0.50 0 0.90 -0.20 0.90 -0.50 0 -0.25 0.40 -0.50 0.90 -0.50 0.50 0 1.20 -0.45 1.60 -1 0.40 -0.55 1.10 -1 1.60 -1 0.50 0 0.90 -0.20 0.90 -0.50 0 -0.25 0.40 -0.50 0.90 -0.50 0.50 0 1.20 -0.45 1.60 -1 0.40 -0.55 1.10 -1 1.60 -1 0.50 0 0.90 -0.20 0.90 -0.50 0 -0.25 0.40 -0.50 0.90 -0.50 0.50 0 1.20 -0.45 1.60 -1 0.40 -0.55 1.10 -1 1.60 -1 0.50 0 0.90 -0.20 0.90 -0.50 0 -0.25 0.45 -0.50 1 -0.50 0.55 0 1 -0.20 1 -0.50 0 -0.25 0.40 -0.50 0.90 -0.50 0.50 0 1.20 -0.45 1.60 -1 0.40 -0.55 1.10 -1 1.60 -1 0.50 0 0.90 -0.20 0.90 -0.50 0 -0.25 0.45 -0.50 1 -0.50 0.55 0 1 -0.20 1 -0.50 0 -0.25 0.40 -0.50 0.90 -0.50 0.50 0 1.20 -0.45 1.60 -1 0.40 -0.55 1.05 -1 1.50 -1 0.45 0 1.10 -0.45 1.50 -1 0.40 -0.55 1.10 -1 1.60 -1 0.50 0 0.90 -0.20 0.90 -0.50 0 -0.25 0.45 -0.50 1 -0.50 0.55 0 1 -0.20 1 -0.50 0 -0.25 0.40 -0.50 0.90 -0.50 0.50 0 1.20 -0.45 1.60 -1 0.40 -0.55 1.10 -1 1.60 -1 0.50 0 0.90 -0.20 0.90 -0.50 0 -0.25 0.40 -0.50 0.90 -0.50 0.50 0 1.20 -0.45 1.60 -1 0.40 -0.55 1.10 -1 1.60 -1 0.50 0 0.90 -0.20 0.90 -0.50 0 -0.25 0.45 -0.50 1 -0.50 0.55 0 1 -0.20 1 -0.50 0 -0.25 0.40 -0.50 0.90 -0.50 0.50 0 1.20 -0.45 1.60 -1 0.40 -0.55 1.10 -1 1.60 -1 0.50 0 0.90 -0.20 0.90 -0.50 0 -0.25 0.40 -0.50 0.90 -0.50 0.50 0 1.20 -0.45 1.60 -1 0.40 -0.55 1.10 -1 1.60 -1 0.50 0 0.90 -0.20 0.90 -0.50 0 -0.25 0.45 -0.50 1 -0.50 0.55 0 1 -0.20 1 -0.50 0 -0.25 0.40 -0.50 0.90 -0.50 0.50 0 1.20 -0.45 1.60 -1 0.40 -0.55 1.10 -1 1.60 -1 0.50 0 0.90 -0.20 0.90 -0.50 0 -0.25 0.40 -0.50 0.90 -0.50 0.50 0 1.20 -0.45 1.60 -1 0.40 -0.55 1.10 -1 1.60 -1 0.50 0 0.90 -0.20 0.90 -0.50 0 -0.25 0.40 -0.50 0.90 -0.50 0.50 0 1.20 -0.45 1.60 -1 0.40 -0.55 1.10 -1 1.60 -1 0.50 0 0.90 -0.20 0.90 -0.50 0 -0.25 0.40 -0.50 0.90 -0.50 0.50 0 1.20 -0.45 1.60 -1 0.40 -0.55 1.10 -1 1.60 -1 0.50 0 0.90 -0.20 0.90 -0.50 0 -0.25 0.40 -0.50 0.90 -0.50 0.50 0 1.20 -0.45 1.60 -1 0.40 -0.55 1.10 -1 1.60 -1 0.50 0 0.90 -0.20 0.90 -0.50 0 -0.25 0.45 -0.50 1 -0.50 0.55 0 1 -0.20 1 -0.50 0 -0.25 0.45 -0.50 1 -0.50 1 0 1 -0.35 1 -162.50 0 -162.15 0 -162.50 -1 -162.50 -0.55 0 -1 -0.20 -1 -0.50 0 -0.25 -0.45 -0.50 -1 -0.50 -0.55 0 -1 -0.20 -1 -0.50 0 -0.25 -0.45 -0.50 -1 -0.50 -0.55 0 -1 -0.20 -1 -0.50 0 -0.25 -0.40 -0.50 -0.90 -0.50 -0.50 0 -1.20 -0.45 -1.60 -1 -0.40 -0.55 -1.10 -1 -1.60 -1 -0.50 0 -0.90 -0.20 -0.90 -0.50 0 -0.25 -0.40 -0.50 -0.90 -0.50 -0.50 0 -1.20 -0.45 -1.60 -1 -0.40 -0.55 -1.10 -1 -1.60 -1 -0.50 0 -0.90 -0.20 -0.90 -0.50 0 -0.25 -0.45 -0.50 -1 -0.50 -0.55 0 -1 -0.20 -1 -0.50 0 -0.25 -0.40 -0.50 -0.90 -0.50 -0.50 0 -1.20 -0.45 -1.60 -1 -0.40 -0.55 -1.10 -1 -1.60 -1 -0.50 0 -0.90 -0.20 -0.90 -0.50 0 -0.25 -0.45 -0.50 -1 -0.50 -0.55 0 -1 -0.20 -1 -0.50 0 -0.25 -0.40 -0.50 -0.90 -0.50 -0.50 0 -1.20 -0.45 -1.60 -1 -0.40 -0.55 -1.10 -1 -1.60 -1 -0.50 0 -0.90 -0.20 -0.90 -0.50 0 -0.25 -0.40 -0.50 -0.90 -0.50 -0.50 0 -1.20 -0.45 -1.60 -1 -0.40 -0.55 -1.10 -1 -1.60 -1 -0.50 0 -0.90 -0.20 -0.90 -0.50 0 -0.25 -0.45 -0.50 -1 -0.50 -0.55 0 -1 -0.20 -1 -0.50 0 -0.25 -0.40 -0.50 -0.90 -0.50 -0.50 0 -1.20 -0.45 -1.60 -1 -0.40 -0.55 -1.10 -1 -1.60 -1 -0.50 0 -0.90 -0.20 -0.90 -0.50 0 -0.25 -0.40 -0.50 -0.90 -0.50 -0.50 0 -1.20 -0.45 -1.60 -1 -0.40 -0.55 -1.10 -1 -1.60 -1 -0.50 0 -0.90 -0.20 -0.90 -0.50 0 -0.25 -0.45 -0.50 -1 -0.50 -0.55 0 -1 -0.20 -1 -0.50 0 -0.25 -0.40 -0.50 -0.90 -0.50 -0.50 0 -1.20 -0.45 -1.60 -1 -0.40 -0.55 -1.10 -1 -1.60 -1 -0.50 0 -0.90 -0.20 -0.90 -0.50 0 -0.25 -0.40 -0.50 -0.90 -0.50 -0.50 0 -1.20 -0.45 -1.60 -1 -0.40 -0.55 -1.10 -1 -1.60 -1 -0.50 0 -0.90 -0.20 -0.90 -0.50 0 -0.25 -0.45 -0.50 -1 -0.50 -0.55 0 -1 -0.20 -1 -0.50 0 -0.25 -0.40 -0.50 -0.90 -0.50 -0.50 0 -1.20 -0.45 -1.60 -1 -0.40 -0.55 -1.10 -1 -1.60 -1 -0.50 0 -0.90 -0.20 -0.90 -0.50 0 -0.25 -0.45 -0.50 -1 -0.50 -0.55 0 -1 -0.20 -1 -0.50 0 -0.25 -0.40 -0.50 -0.90 -0.50 -0.50 0 -1.20 -0.45 -1.60 -1 -0.40 -0.55 -1.10 -1 -1.60 -1 -0.50 0 -0.90 -0.20 -0.90 -0.50 0 -0.25 -0.40 -0.50 -0.90 -0.50 -0.50 0 -1.20 -0.45 -1.60 -1 -0.40 -0.55 -1.10 -1 -1.60 -1 -0.50 0 -0.90 -0.20 -0.90 -0.50 0 -0.25 -0.45 -0.50 -1 -0.50 -0.55 0 -1 -0.20 -1 -0.50 0 -0.25 -0.40 -0.50 -0.90 -0.50 -0.50 0 -1.20 -0.45 -1.60 -1 -0.40 -0.55 -1.10 -1 -1.60 -1 -0.50 0 -0.90 -0.20 -0.90 -0.50 0 -0.25 -0.40 -0.50 -0.90 -0.50 -0.50 0 -1.20 -0.45 -1.60 -1 -0.40 -0.55 -1.10 -1 -1.60 -1 -0.50 0 -0.90 -0.20 -0.90 -0.50 0 -0.25 -0.45 -0.50 -1 -0.50 -0.55 0 -1 -0.20 -1 -0.50 0 -0.25 -0.40 -0.50 -0.90 -0.50 -0.50 0 -1.20 -0.45 -1.60 -1 -0.40 -0.55 -1.10 -1 -1.60 -1 -0.50 0 -0.90 -0.20 -0.90 -0.50 0 -0.25 -0.40 -0.50 -0.90 -0.50 -0.50 0 -1.20 -0.45 -1.60 -1 -0.40 -0.55 -1.10 -1 -1.60 -1 -0.50 0 -0.90 -0.20 -0.90 -0.50 0 -0.25 -0.45 -0.50 -1 -0.50 -0.55 0 -1 -0.20 -1 -0.50 0 -0.25 -0.40 -0.50 -0.90 -0.50 -0.50 0 -1.20 -0.45 -1.60 -1 -0.40 -0.55 -1.10 -1 -1.60 -1 -0.50 0 -0.90 -0.20 -0.90 -0.50 0 -0.25 -0.40 -0.50 -0.90 -0.50 -0.50 0 -1.20 -0.45 -1.60 -1 -0.40 -0.55 -1.10 -1 -1.60 -1 -0.50 0 -0.90 -0.20 -0.90 -0.50 0 -0.25 -0.45 -0.50 -1 -0.50 -0.55 0 -1 -0.20 -1 -0.50 0 -0.25 -0.40 -0.50 -0.90 -0.50 -0.50 0 -1.20 -0.45 -1.60 -1 -0.40 -0.55 -1.10 -1 -1.60 -1 -0.50 0 -0.90 -0.20 -0.90 -0.50 0 -0.25 -0.40 -0.50 -0.90 -0.50 -0.50 0 -1.20 -0.45 -1.60 -1 -0.40 -0.55 -1.10 -1 -1.60 -1 -0.50 0 -0.90 -0.20 -0.90 -0.50 0 -0.25 -0.45 -0.50 -1 -0.50 -0.55 0 -1 -0.20 -1 -0.50 0 -0.25 -0.40 -0.50 -0.90 -0.50 -0.50 0 -1.20 -0.45 -1.60 -1 -0.40 -0.55 -1.10 -1 -1.60 -1 -0.50 0 -0.90 -0.20 -0.90 -0.50 0 -0.25 -0.40 -0.50 -0.90 -0.50 -0.50 0 -1.20 -0.45 -1.60 -1 -0.40 -0.55 -1.10 -1 -1.60 -1 -0.50 0 -0.90 -0.20 -0.90 -0.50 0 -0.25 -0.45 -0.50 -1 -0.50 -0.55 0 -1 -0.20 -1 -0.50 0 -0.25 -0.40 -0.50 -0.90 -0.50 -0.50 0 -1.20 -0.45 -1.60 -1 -0.40 -0.55 -1.10 -1 -1.60 -1 -0.50 0 -0.90 -0.20 -0.90 -0.50 0 -0.25 -0.40 -0.50 -0.90 -0.50 -0.50 0 -1.20 -0.45 -1.60 -1 -0.40 -0.55 -1.10 -1 -1.60 -1 -0.50 0 -0.90 -0.20 -0.90 -0.50 0 -0.25 -0.45 -0.50 -1 -0.50 -0.55 0 -1 -0.20 -1 -0.50 0 -0.25 -0.40 -0.50 -0.90 -0.50 -0.50 0 -1.20 -0.45 -1.60 -1 -0.40 -0.55 -1.10 -1 -1.60 -1 -0.50 0 -0.90 -0.20 -0.90 -0.50 0 -0.25 -0.45 -0.50 -1 -0.50 -0.55 0 -1 -0.20 -1 -0.50 0 -0.25 -0.40 -0.50 -0.90 -0.50 -0.50 0 -1.20 -0.45 -1.60 -1 -0.40 -0.55 -1.10 -1 -1.60 -1 -0.50 0 -0.90 -0.20 -0.90 -0.50 0 -0.25 -0.40 -0.50 -0.90 -0.50 -0.50 0 -1.20 -0.45 -1.60 -1 -0.40 -0.55 -1.10 -1 -1.60 -1 -0.50 0 -0.90 -0.20 -0.90 -0.50 0 -0.25 -0.40 -0.50 -0.90 -0.50 -0.50 0 -1.20 -0.45 -1.60 -1 -0.40 -0.55 -1.10 -1 -1.60 -1 -0.50 0 -0.90 -0.20 -0.90 -0.50 0 -0.25 -0.45 -0.50 -1 -0.50 -0.55 0 -1 -0.20 -1 -0.50 0 -0.25 -0.40 -0.50 -0.90 -0.50 -0.50 0 -1.20 -0.45 -1.60 -1 -0.40 -0.55 -1.10 -1 -1.60 -1 -0.50 0 -0.90 -0.20 -0.90 -0.50 0 -0.25 -0.40 -0.50 -0.90 -0.50 -0.50 0 -1.20 -0.45 -1.60 -1 -0.40 -0.55 -1.10 -1 -1.60 -1 -0.50 0 -0.90 -0.20 -0.90 -0.50 0 -0.25 -0.45 -0.50 -1 -0.50 -0.55 0 -1 -0.20 -1 -0.50 0 -0.25 -0.40 -0.50 -0.90 -0.50 -0.50 0 -1.20 -0.45 -1.60 -1 -0.40 -0.55 -1.10 -1 -1.60 -1 -0.50 0 -0.90 -0.20 -0.90 -0.50 0 -0.25 -0.45 -0.50 -1 -0.50 -0.55 0 -1 -0.20 -1 -0.50 0 -0.25 -0.40 -0.50 -0.90 -0.50 -0.50 0 -1.20 -0.45 -1.60 -1 -0.40 -0.55 -1.05 -1 -1.50 -1 -0.45 0 -1.10 -0.45 -1.50 -1 -0.40 -0.55 -1.10 -1 -1.60 -1 -0.50 0 -0.90 -0.20 -0.90 -0.50 0 -0.25 -0.45 -0.50 -1 -0.50 -0.55 0 -1 -0.20 -1 -0.50 0 -0.25 -0.40 -0.50 -0.90 -0.50 -0.50 0 -1.20 -0.45 -1.60 -1 -0.40 -0.55 -1.10 -1 -1.60 -1 -0.50 0 -0.90 -0.20 -0.90 -0.50 0 -0.25 -0.40 -0.50 -0.90 -0.50 -0.50 0 -1.20 -0.45 -1.60 -1 -0.40 -0.55 -1.10 -1 -1.60 -1 -0.50 0 -0.90 -0.20 -0.90 -0.50 0 -0.25 -0.45 -0.50 -1 -0.50 -0.55 0 -1 -0.20 -1 -0.50 0 -0.25 -0.40 -0.50 -0.90 -0.50 -0.50 0 -1.20 -0.45 -1.60 -1 -0.40 -0.55 -1.10 -1 -1.60 -1 -0.50 0 -0.90 -0.20 -0.90 -0.50 0 -0.25 -0.45 -0.50 -1 -0.50 -0.55 0 -1 -0.20 -1 -0.50 0 -0.25 -0.40 -0.50 -0.90 -0.50 -0.50 0 -1.20 -0.45 -1.60 -1 -0.40 -0.55 -1.10 -1 -1.60 -1 -0.50 0 -0.90 -0.20 -0.90 -0.50 0 -0.25 -0.45 -0.50 -1 -0.50 -0.55 0 -1 -0.20 -1 -0.50 0 -0.25 -0.40 -0.50 -0.90 -0.50 -0.50 0 -1.20 -0.45 -1.60 -1 -0.40 -0.55 -1.10 -1 -1.60 -1 -0.50 0 -0.90 -0.20 -0.90 -0.50 0 -0.25 -0.40 -0.50 -0.90 -0.50 -0.50 0 -1.20 -0.45 -1.60 -1 -0.40 -0.55 -1.10 -1 -1.60 -1 -0.50 0 -0.90 -0.20 -0.90 -0.50 0 -0.25 -0.40 -0.50 -0.90 -0.50 -0.50 0 -1.20 -0.45 -1.60 -1 -0.40 -0.55 -1.10 -1 -1.60 -1 -0.50 0 -0.90 -0.20 -0.90 -0.50 0 -0.25 -0.45 -0.50 -1 -0.50 -0.55 0 -1 -0.20 -1 -0.50 0 -0.25 -0.40 -0.50 -0.90 -0.50 -0.50 0 -1.20 -0.45 -1.60 -1 -0.40 -0.55 -1.10 -1 -1.60 -1 -0.50 0 -0.90 -0.20 -0.90 -0.50 0 -0.25 -0.45 -0.50 -1 -0.50 -0.55 0 -1 -0.20 -1 -0.50 0 -0.25 -0.40 -0.50 -0.90 -0.50 -0.50 0 -1.20 -0.45 -1.60 -1 -0.40 -0.55 -1.10 -1 -1.60 -1 -0.50 0 -0.90 -0.20 -0.90 -0.50 0 -0.25 -0.40 -0.50 -0.90 -0.50 -0.50 0 -1.20 -0.45 -1.60 -1 -0.40 -0.55 -1.10 -1 -1.60 -1 -0.50 0 -0.90 -0.20 -0.90 -0.50 0 -0.25 -0.40 -0.50 -0.90 -0.50 -0.50 0 -1.20 -0.45 -1.60 -1 -0.40 -0.55 -1.10 -1 -1.60 -1 -0.50 0 -0.90 -0.20 -0.90 -0.50 0 -0.25 -0.45 -0.50 -1 -0.50 -0.55 0 -1 -0.20 -1 -0.50 0 -0.25 -0.40 -0.50 -0.90 -0.50 -0.50 0 -1.20 -0.45 -1.60 -1 -0.40 -0.55 -1.10 -1 -1.60 -1 -0.50 0 -0.90 -0.20 -0.90 -0.50 0 -0.25 -0.40 -0.50 -0.90 -0.50 -0.50 0 -1.20 -0.45 -1.60 -1 -0.40 -0.55 -1.10 -1 -1.60 -1 -0.50 0 -0.90 -0.20 -0.90 -0.50 0 -0.25 -0.45 -0.50 -1 -0.50 -0.55 0 -1 -0.20 -1 -0.50 0 -0.25 -0.45 -0.50 -1 -0.50 -0.55 0 -1 -0.20 -1 -0.50 0 -0.25 -0.40 -0.50 -0.90 -0.50 -0.50 0 -1.20 -0.45 -1.60 -1 -0.40 -0.55 -1.10 -1 -1.60 -1 -0.50 0 -0.90 -0.20 -0.90 -0.50 0 -0.25 -0.45 -0.50 -1 -0.50 -0.55 0 -1 -0.20 -1 -0.50 0 -0.25 -0.45 -0.50 -1 -0.50 -0.55 0 -1 0.25 -1 0.50 0 0.30 -0.45 0.50 -1 0.50 -0.55 0 -1 0.25 -1 0.50 0 0.30 -0.40 0.50 -0.90 0.50 -0.50 0 -1.20 0.45 -1.60 1 -0.40 0.55 -1.10 1 -1.60 1 -0.50 0 -0.90 0.25 -0.90 0.50 0 0.30 -0.45 0.50 -1 0.50 -0.55 0 -1 0.25 -1 0.50 0 0.30 -0.40 0.50 -0.90 0.50 -0.50 0 -1.20 0.45 -1.60 1 -0.40 0.55 -1.10 1 -1.60 1 -0.50 0 -0.90 0.25 -0.90 0.50 0 0.30 -0.40 0.50 -0.90 0.50 -0.50 0 -1.20 0.45 -1.60 1 -0.40 0.55 -1.10 1 -1.60 1 -0.50 0 -0.90 0.25 -0.90 0.50 0 0.30 -0.40 0.50 -0.90 0.50 -0.50 0 -1.20 0.45 -1.60 1 -0.40 0.55 -1.10 1 -1.60 1 -0.50 0 -0.90 0.25 -0.90 0.50 0 0.30 -0.40 0.50 -0.90 0.50 -0.50 0 -1.20 0.45 -1.60 1 -0.40 0.55 -1.10 1 -1.60 1 -0.50 0 -0.90 0.25 -0.90 0.50 0 0.30 -0.40 0.50 -0.90 0.50 -0.50 0 -1.20 0.45 -1.60 1 -0.40 0.55 -1.10 1 -1.60 1 -0.50 0 -0.90 0.25 -0.90 0.50 0 0.30 -0.40 0.50 -0.90 0.50 -0.50 0 -1.20 0.45 -1.60 1 -0.40 0.55 -1.10 1 -1.60 1 -0.50 0 -0.90 0.25 -0.90 0.50 0 0.30 -0.40 0.50 -0.90 0.50 -0.50 0 -1.20 0.45 -1.60 1 -0.40 0.55 -1.10 1 -1.60 1 -0.50 0 -0.90 0.25 -0.90 0.50 0 0.30 -0.40 0.50 -0.90 0.50 -0.50 0 -1.20 0.45 -1.60 1 -0.40 0.55 -1.10 1 -1.60 1 -0.50 0 -0.90 0.25 -0.90 0.50 0 0.30 -0.45 0.50 -1 0.50 -0.55 0 -1 0.25 -1 0.50 0 0.30 -0.40 0.50 -0.90 0.50 -0.50 0 -1.20 0.45 -1.60 1 -0.40 0.55 -1.10 1 -1.60 1 -0.50 0 -0.90 0.25 -0.90 0.50 0 0.30 -0.40 0.50 -0.90 0.50 -0.50 0 -1.20 0.45 -1.60 1 -0.40 0.55 -1.10 1 -1.60 1 -0.50 0 -0.90 0.25 -0.90 0.50 0 0.30 -0.40 0.50 -0.90 0.50 -0.50 0 -1.20 0.45 -1.60 1 -0.40 0.55 -1.10 1 -1.60 1 -0.50 0 -0.90 0.25 -0.90 0.50 0 0.30 -0.40 0.50 -0.90 0.50 -0.50 0 -1.20 0.45 -1.60 1 -0.40 0.55 -1.10 1 -1.60 1 -0.50 0 -0.90 0.25 -0.90 0.50 0 0.30 -0.45 0.50 -1 0.50 -0.55 0 -1 0.25 -1 0.50 0 0.30 -0.40 0.50 -0.90 0.50 -0.50 0 -1.20 0.45 -1.60 1 -0.40 0.55 -1.10 1 -1.60 1 -0.50 0 -0.90 0.25 -0.90 0.50 0 0.30 -0.40 0.50 -0.90 0.50 -0.50 0 -1.20 0.45 -1.60 1 -0.40 0.55 -1.10 1 -1.60 1 -0.50 0 -0.90 0.25 -0.90 0.50 0 0.30 -0.45 0.50 -1 0.50 -0.55 0 -1 0.25 -1 0.50 0 0.30 -0.40 0.50 -0.90 0.50 -0.50 0 -1.20 0.45 -1.60 1 -0.40 0.55 -1.10 1 -1.60 1 -0.50 0 -0.90 0.25 -0.90 0.50 0 0.30 -0.40 0.50 -0.90 0.50 -0.50 0 -1.20 0.45 -1.60 1 -0.40 0.55 -1.10 1 -1.60 1 -0.50 0 -0.90 0.25 -0.90 0.50 0 0.30 -0.40 0.50 -0.90 0.50 -0.50 0 -1.20 0.45 -1.60 1 -0.40 0.55 -1.10 1 -1.60 1 -0.50 0 -0.90 0.25 -0.90 0.50 0 0.30 -0.40 0.50 -0.90 0.50 -0.50 0 -1.20 0.45 -1.60 1 -0.40 0.55 -1.10 1 -1.60 1 -0.50 0 -0.90 0.25 -0.90 0.50 0 0.30 -0.40 0.50 -0.90 0.50 -0.50 0 -1.20 0.45 -1.60 1 -0.40 0.55 -1.10 1 -1.60 1 -0.50 0 -0.90 0.25 -0.90 0.50 0 0.30 -0.45 0.50 -1 0.50 -0.55 0 -1 0.25 -1 0.50 0 0.30 -0.40 0.50 -0.90 0.50 -0.50 0 -1.20 0.45 -1.60 1 -0.40 0.55 -1.10 1 -1.60 1 -0.50 0 -0.90 0.25 -0.90 0.50 0 0.30 -0.40 0.50 -0.90 0.50 -0.50 0 -1.20 0.45 -1.60 1 -0.40 0.55 -1.10 1 -1.60 1 -0.50 0 -0.90 0.25 -0.90 0.50 0 0.30 -0.40 0.50 -0.90 0.50 -0.50 0 -1.20 0.45 -1.60 1 -0.40 0.55 -1.10 1 -1.60 1 -0.50 0 -0.90 0.25 -0.90 0.50 0 0.30 -0.40 0.50 -0.90 0.50 -0.50 0 -1.20 0.45 -1.60 1 -0.40 0.55 -1.10 1 -1.60 1 -0.50 0 -0.90 0.25 -0.90 0.50 0 0.30 -0.40 0.50 -0.90 0.50 -0.50 0 -1.20 0.45 -1.60 1 -0.40 0.55 -1.10 1 -1.60 1 -0.50 0 -0.90 0.25 -0.90 0.50 0 0.30 -0.45 0.50 -1 0.50 -0.55 0 -1 0.25 -1 0.50 0 0.30 -0.40 0.50 -0.90 0.50 -0.50 0 -1.20 0.45 -1.60 1 -0.40 0.55 -1.10 1 -1.60 1 -0.50 0 -0.90 0.25 -0.90 0.50 0 0.30 -0.40 0.50 -0.90 0.50 -0.50 0 -1.20 0.45 -1.60 1 -0.40 0.55 -1.10 1 -1.60 1 -0.50 0 -0.90 0.25 -0.90 0.50 0 0.30 -0.40 0.50 -0.90 0.50 -0.50 0 -1.20 0.45 -1.60 1 -0.40 0.55 -1.10 1 -1.60 1 -0.50 0 -0.90 0.25 -0.90 0.50 0 0.30 -0.45 0.50 -1 0.50 -0.55 0 -1 0.25 -1 0.50 0 0.30 -0.40 0.50 -0.90 0.50 -0.50 0 -1.20 0.45 -1.60 1 -0.40 0.55 -1.05 1 -1.50 1 -0.45 0 -1.10 0.45 -1.50 1 -0.40 0.55 -1.10 1 -1.60 1 -0.50 0 -0.90 0.25 -0.90 0.50 0 0.30 -0.45 0.50 -1 0.50 -0.55 0 -1 0.25 -1 0.50 0 0.30 -0.40 0.50 -0.90 0.50 -0.50 0 -1.20 0.45 -1.60 1 -0.40 0.55 -1.10 1 -1.60 1 -0.50 0 -0.90 0.25 -0.90 0.50 0 0.30 -0.40 0.50 -0.90 0.50 -0.50 0 -1.20 0.45 -1.60 1 -0.40 0.55 -1.10 1 -1.60 1 -0.50 0 -0.90 0.25 -0.90 0.50 0 0.30 -0.40 0.50 -0.90 0.50 -0.50 0 -1.20 0.45 -1.60 1 -0.40 0.55 -1.10 1 -1.60 1 -0.50 0 -0.90 0.25 -0.90 0.50 0 0.30 -0.45 0.50 -1 0.50 -0.55 0 -1 0.25 -1 0.50 0 0.30 -0.40 0.50 -0.90 0.50 -0.50 0 -1.20 0.45 -1.60 1 -0.40 0.55 -1.10 1 -1.60 1 -0.50 0 -0.90 0.25 -0.90 0.50 0 0.30 -0.40 0.50 -0.90 0.50 -0.50 0 -1.20 0.45 -1.60 1 -0.40 0.55 -1.05 1 -1.50 1 -0.45 0 -1.10 0.45 -1.50 1 -0.40 0.55 -1.10 1 -1.60 1 -0.50 0 -0.90 0.25 -0.90 0.50 0 0.30 -0.45 0.50 -1 0.50 -0.55 0 -1 0.25 -1 0.50 0 0.30 -0.40 0.50 -0.90 0.50 -0.50 0 -1.20 0.45 -1.60 1 -0.40 0.55 -1.10 1 -1.60 1 -0.50 0 -0.90 0.25 -0.90 0.50 0 0.30 -0.45 0.50 -1 0.50 -0.55 0 -1 0.25 -1 0.50 0 0.30 -0.40 0.50 -0.90 0.50 -0.50 0 -1.20 0.45 -1.60 1 -0.40 0.55 -1.10 1 -1.60 1 -0.50 0 -0.90 0.25 -0.90 0.50 0 0.30 -0.40 0.50 -0.90 0.50 -0.50 0 -1.20 0.45 -1.60 1 -0.40 0.55 -1.10 1 -1.60 1 -0.50 0 -0.90 0.25 -0.90 0.50 0 0.30 -0.40 0.50 -0.90 0.50 -0.50 0 -1.20 0.45 -1.60 1 -0.40 0.55 -1.10 1 -1.60 1 -0.50 0 -0.90 0.25 -0.90 0.50 0 0.30 -0.40 0.50 -0.90 0.50 -0.50 0 -1.20 0.45 -1.60 1 -0.40 0.55 -1.10 1 -1.60 1 -0.50 0 -0.90 0.25 -0.90 0.50 0 0.30 -0.40 0.50 -0.90 0.50 -0.50 0 -1.20 0.45 -1.60 1 -0.40 0.55 -1.10 1 -1.60 1 -0.50 0 -0.90 0.25 -0.90 0.50 0 0.30 -0.45 0.50 -1 0.50 -0.55 0 -1 0.25 -1 0.50 0 0.30 -0.40 0.50 -0.90 0.50 -0.50 0 -1.20 0.45 -1.60 1 -0.40 0.55 -1.10 1 -1.60 1 -0.50 0 -0.90 0.25 -0.90 0.50 0 0.30 -0.40 0.50 -0.90 0.50 -0.50 0 -1.20 0.45 -1.60 1 -0.40 0.55 -1.10 1 -1.60 1 -0.50 0 -0.90 0.25 -0.90 0.50 0 0.30 -0.40 0.50 -0.90 0.50 -0.50 0 -1.20 0.45 -1.60 1 -0.40 0.55 -1.10 1 -1.60 1 -0.50 0 -0.90 0.25 -0.90 0.50 0 0.30 -0.45 0.50 -1 0.50 -0.55 0 -1 0.25 -1 0.50 0 0.30 -0.40 0.50 -0.90 0.50 -0.50 0 -1.20 0.45 -1.60 1 -0.40 0.55 -1.10 1 -1.60 1 -0.50 0 -0.90 0.25 -0.90 0.50 0 0.30 -0.40 0.50 -0.90 0.50 -0.50 0 -1.20 0.45 -1.60 1 -0.40 0.55 -1.10 1 -1.60 1 -0.50 0 -0.90 0.25 -0.90 0.50 0 0.30 -0.45 0.50 -1 0.50 -0.55 0 -1 0.25 -1 0.50 0 0.30 -0.40 0.50 -0.90 0.50 -0.50 0 -1.20 0.45 -1.60 1 -0.40 0.55 -1.10 1 -1.60 1 -0.50 0 -0.90 0.25 -0.90 0.50 0 0.30 -0.40 0.50 -0.90 0.50 -0.50 0 -1.20 0.45 -1.60 1 -0.40 0.55 -1.10 1 -1.60 1 -0.50 0 -0.90 0.25 -0.90 0.50 0 0.30 -0.40 0.50 -0.90 0.50 -0.50 0 -1.20 0.45 -1.60 1 -0.40 0.55 -1.05 1 -1.50 1 -0.45 0 -1.10 0.45 -1.50 1 -0.40 0.55 -1.10 1 -1.60 1 -0.50 0 -0.90 0.25 -0.90 0.50 0 0.30 -0.45 0.50 -1 0.50 -0.55 0 -1 0.25 -1 0.50 0 0.30 -0.40 0.50 -0.90 0.50 -0.50 0 -1.20 0.45 -1.60 1 -0.40 0.55 -1.10 1 -1.60 1 -0.50 0 -0.90 0.25 -0.90 0.50 0 0.30 -0.40 0.50 -0.90 0.50 -0.50 0 -1.20 0.45 -1.60 1 -0.40 0.55 -1.10 1 -1.60 1 -0.85 0 -0.90 7 -0.90 161.25 l0 161.30 1.25 1.20 c0.65 0.70 1.55 1.25 2 1.25 0.40 0 0.75 0.25 0.75 0.50 0 0.30 0.45 0.50 1 0.50 0.55 0 1 0.25 1 0.50 0 0.30 0.40 0.50 0.90 0.50 0.50 0 1.20 0.45 1.60 1 0.40 0.55 1.10 1 1.60 1 0.50 0 0.90 0.25 0.90 0.50 0 0.30 0.45 0.50 1 0.50 0.55 0 1 0.25 1 0.50 0 0.30 0.40 0.50 0.90 0.50 0.50 0 1.20 0.45 1.60 1 0.40 0.55 1.10 1 1.60 1 0.50 0 0.90 0.25 0.90 0.50 0 0.30 0.45 0.50 1 0.50 0.55 0 1 0.25 1 0.50 0 0.30 0.40 0.50 0.90 0.50 0.50 0 1.20 0.45 1.60 1 0.40 0.55 1.10 1 1.60 1 0.50 0 0.90 0.25 0.90 0.50 0 0.30 0.40 0.50 0.90 0.50 0.50 0 1.20 0.45 1.60 1 0.40 0.55 1.05 1 1.50 1 0.45 0 1.10 0.45 1.50 1 0.40 0.55 1.10 1 1.60 1 0.50 0 0.90 0.25 0.90 0.50 0 0.30 0.45 0.50 1 0.50 0.55 0 1 0.25 1 0.50 0 0.30 0.45 0.50 1 0.50 0.55 0 1 0.25 1 0.50 0 0.30 0.40 0.50 0.90 0.50 0.50 0 1.20 0.45 1.60 1 0.40 0.55 1.10 1 1.60 1 0.50 0 0.90 0.25 0.90 0.50 0 0.30 0.40 0.50 0.90 0.50 0.50 0 1.20 0.45 1.60 1 0.40 0.55 1.10 1 1.60 1 0.50 0 0.90 0.25 0.90 0.50 0 0.30 0.40 0.50 0.90 0.50 0.50 0 1.20 0.45 1.60 1 0.40 0.55 1.10 1 1.60 1 0.50 0 0.90 0.25 0.90 0.50 0 0.30 0.40 0.50 0.90 0.50 0.50 0 1.20 0.45 1.60 1 0.40 0.55 1.10 1 1.60 1 0.50 0 0.90 0.25 0.90 0.50 0 0.30 0.40 0.50 0.90 0.50 0.50 0 1.20 0.45 1.60 1 0.40 0.55 1.10 1 1.60 1 0.50 0 0.90 0.25 0.90 0.50 0 0.30 0.45 0.50 1 0.50 0.55 0 1 0.25 1 0.50 0 0.30 0.40 0.50 0.90 0.50 0.50 0 1.20 0.45 1.60 1 0.40 0.55 1.10 1 1.60 1 0.50 0 0.90 0.25 0.90 0.50 0 0.30 0.45 0.50 1 0.50 0.55 0 1 0.25 1 0.50 0 0.30 0.40 0.50 0.90 0.50 0.50 0 1.20 0.45 1.60 1 0.40 0.55 1.10 1 1.60 1 0.50 0 0.90 0.25 0.90 0.50 0 0.30 0.40 0.50 0.90 0.50 0.50 0 1.20 0.45 1.60 1 0.40 0.55 1.10 1 1.60 1 0.50 0 0.90 0.25 0.90 0.50 0 0.30 0.40 0.50 0.90 0.50 0.50 0 1.20 0.45 1.60 1 0.40 0.55 1.10 1 1.60 1 0.50 0 0.90 0.25 0.90 0.50 0 0.30 0.45 0.50 1 0.50 0.55 0 1 0.25 1 0.50 0 0.30 0.40 0.50 0.90 0.50 0.50 0 1.20 0.45 1.60 1 0.40 0.55 1.10 1 1.60 1 0.50 0 0.90 0.25 0.90 0.50 0 0.30 0.40 0.50 0.90 0.50 0.50 0 1.20 0.45 1.60 1 0.40 0.55 1.10 1 1.60 1 0.50 0 0.90 0.25 0.90 0.50 0 0.30 0.45 0.50 1 0.50 0.55 0 1 0.25 1 0.50 0 0.30 0.40 0.50 0.90 0.50 0.50 0 1.20 0.45 1.60 1 0.40 0.55 1.10 1 1.60 1 0.50 0 0.90 0.25 0.90 0.50 0 0.30 0.45 0.50 1 0.50 0.55 0 1 0.25 1 0.50 0 0.30 0.40 0.50 0.90 0.50 0.50 0 1.20 0.45 1.60 1 0.40 0.55 1.10 1 1.60 1 0.50 0 0.90 0.25 0.90 0.50 0 0.30 0.40 0.50 0.90 0.50 0.50 0 1.20 0.45 1.60 1 0.40 0.55 1.10 1 1.60 1 0.50 0 0.90 0.25 0.90 0.50 0 0.30 0.40 0.50 0.90 0.50 0.50 0 1.20 0.45 1.60 1 0.40 0.55 1.10 1 1.60 1 0.50 0 0.90 0.25 0.90 0.50 0 0.30 0.45 0.50 1 0.50 0.55 0 1 0.25 1 0.50 0 0.30 0.40 0.50 0.90 0.50 0.50 0 1.20 0.45 1.60 1 0.40 0.55 1.10 1 1.60 1 0.50 0 0.90 0.25 0.90 0.50 0 0.30 0.40 0.50 0.90 0.50 0.50 0 1.20 0.45 1.60 1 0.40 0.55 1.10 1 1.60 1 0.50 0 0.90 0.25 0.90 0.50 0 0.30 0.45 0.50 1 0.50 0.55 0 1 0.25 1 0.50 0 0.30 0.40 0.50 0.90 0.50 0.50 0 1.20 0.45 1.60 1 0.40 0.55 1.10 1 1.60 1 0.50 0 0.90 0.25 0.90 0.50 0 0.30 0.45 0.50 1 0.50 0.55 0 1 0.25 1 0.50 0 0.30 0.40 0.50 0.90 0.50 0.50 0 1.20 0.45 1.60 1 0.40 0.55 1.10 1 1.60 1 0.50 0 0.90 0.25 0.90 0.50 0 0.30 0.40 0.50 0.90 0.50 0.50 0 1.20 0.45 1.60 1 0.40 0.55 1.10 1 1.60 1 0.50 0 0.90 0.25 0.90 0.50 0 0.30 0.40 0.50 0.90 0.50 0.50 0 1.20 0.45 1.60 1 0.40 0.55 1.10 1 1.60 1 0.50 0 0.90 0.25 0.90 0.50 0 0.30 0.45 0.50 1 0.50 0.55 0 1 0.25 1 0.50 0 0.30 0.40 0.50 0.90 0.50 0.50 0 1.20 0.45 1.60 1 0.40 0.55 1.10 1 1.60 1 0.50 0 0.90 0.25 0.90 0.50 0 0.30 0.45 0.50 1 0.50 0.55 0 1 0.25 1 0.50 0 0.30 0.40 0.50 0.90 0.50 0.50 0 1.20 0.45 1.60 1 0.40 0.55 1.10 1 1.60 1 0.50 0 0.90 0.25 0.90 0.50 0 0.30 0.40 0.50 0.90 0.50 0.50 0 1.20 0.45 1.60 1 0.40 0.55 1.10 1 1.60 1 0.50 0 0.90 0.25 0.90 0.50 0 0.30 0.40 0.50 0.90 0.50 0.50 0 1.20 0.45 1.60 1 0.40 0.55 1.10 1 1.60 1 0.50 0 0.90 0.25 0.90 0.50 0 0.30 0.45 0.50 1 0.50 0.55 0 1 0.25 1 0.50 0 0.30 0.40 0.50 0.90 0.50 0.50 0 1.20 0.45 1.60 1 0.40 0.55 1.10 1 1.60 1 0.50 0 0.90 0.25 0.90 0.50 0 0.30 0.45 0.50 1 0.50 0.55 0 1 0.25 1 0.50 0 0.30 0.40 0.50 0.90 0.50 0.50 0 1.20 0.45 1.60 1 0.40 0.55 1.10 1 1.60 1 0.50 0 0.90 0.25 0.90 0.50 0 0.30 0.40 0.50 0.90 0.50 0.50 0 1.20 0.45 1.60 1 0.40 0.55 1.10 1 1.60 1 0.50 0 0.90 0.25 0.90 0.50 0 0.30 0.40 0.50 0.90 0.50 0.50 0 1.20 0.45 1.60 1 0.40 0.55 1.10 1 1.60 1 0.50 0 0.90 0.25 0.90 0.50 0 0.30 0.45 0.50 1 0.50 0.55 0 1 0.25 1 0.50 0 0.30 0.40 0.50 0.90 0.50 0.50 0 1.20 0.45 1.60 1 0.40 0.55 1.10 1 1.60 1 0.50 0 0.90 0.25 0.90 0.50 0 0.30 0.45 0.50 1 0.50 0.55 0 1 0.25 1 0.50 0 0.30 0.40 0.50 0.90 0.50 0.50 0 1.20 0.45 1.60 1 0.40 0.55 1.10 1 1.60 1 0.50 0 0.90 0.25 0.90 0.50 0 0.30 0.40 0.50 0.90 0.50 0.50 0 1.20 0.45 1.60 1 0.40 0.55 1.10 1 1.60 1 0.50 0 0.90 0.25 0.90 0.50 0 0.30 0.40 0.50 0.90 0.50 0.50 0 1.20 0.45 1.60 1 0.40 0.55 1.10 1 1.60 1 0.50 0 0.90 0.25 0.90 0.50 0 0.30 0.40 0.50 0.90 0.50 0.50 0 1.20 0.45 1.60 1 0.40 0.55 1.10 1 1.60 1 0.50 0 0.90 0.25 0.90 0.50 0 0.30 0.45 0.50 1 0.50 0.55 0 1 0.25 1 0.50 0 0.30 0.40 0.50 0.90 0.50 0.50 0 1.20 0.45 1.60 1 0.40 0.55 1.10 1 1.60 1 0.50 0 0.90 0.25 0.90 0.50 0 0.30 0.45 0.50 1 0.50 0.55 0 1 0.25 1 0.50 0 0.30 0.40 0.50 0.90 0.50 0.50 0 1.20 0.45 1.60 1 0.40 0.55 1.10 1 1.60 1 0.50 0 0.90 0.25 0.90 0.50 0 0.30 0.45 0.50 1 0.50 0.55 0 1 0.25 1 0.50 0 0.30 0.40 0.50 0.90 0.50 0.50 0 1.20 0.45 1.60 1 0.40 0.55 1.10 1 1.60 1 0.50 0 0.90 0.25 0.90 0.50 0 0.30 0.45 0.50 1 0.50 0.55 0 1 0.25 1 0.50 0 0.30 0.40 0.50 0.90 0.50 0.50 0 1.20 0.45 1.60 1 0.40 0.55 1.10 1 1.60 1 0.50 0 0.90 0.25 0.90 0.50 0 0.30 0.40 0.50 0.90 0.50 0.50 0 1.20 0.45 1.60 1 0.40 0.55 1.10 1 1.60 1 0.50 0 0.90 0.25 0.90 0.50 0 0.30 0.45 0.50 1 0.50 0.55 0 1 0.25 1 0.50 0 0.30 0.40 0.50 0.90 0.50 0.50 0 1.20 0.45 1.60 1 0.40 0.55 1.10 1 1.60 1 0.50 0 0.90 0.25 0.90 0.50 0 0.30 0.40 0.50 0.90 0.50 0.50 0 1.20 0.45 1.60 1 0.40 0.55 1.10 1 1.60 1 0.50 0 0.90 0.25 0.90 0.50 0 0.30 0.40 0.50 0.90 0.50 0.50 0 1.20 0.45 1.60 1 0.40 0.55 1.10 1 1.60 1 0.50 0 0.90 0.25 0.90 0.50 0 0.30 0.40 0.50 0.90 0.50 0.50 0 1.20 0.45 1.60 1 0.40 0.55 1.10 1 1.60 1 0.50 0 0.90 0.25 0.90 0.50 0 0.30 0.45 0.50 1 0.50 0.55 0 1 0.25 1 0.50 0 0.30 0.85 0.50 1.90 0.50 1.30 0 2.10 -0.30 2.60 -1z"/>
 </g>
</svg>
